<svg width="28" height="28" viewBox="0 0 28 28" fill="none" xmlns="http://www.w3.org/2000/svg">
<path d="M25.5 0H2.5C1.83696 0 1.20107 0.263392 0.732233 0.732233C0.263392 1.20107 0 1.83696 0 2.5V25.5C0 26.163 0.263392 26.7989 0.732233 27.2678C1.20107 27.7366 1.83696 28 2.5 28H25.5C26.163 28 26.7989 27.7366 27.2678 27.2678C27.7366 26.7989 28 26.163 28 25.5V2.5C28 1.83696 27.7366 1.20107 27.2678 0.732233C26.7989 0.263392 26.163 0 25.5 0ZM26 2.5V13H15V2H25.5C25.6326 2 25.7598 2.05268 25.8536 2.14645C25.9473 2.24021 26 2.36739 26 2.5ZM2.5 2H13V13H2V2.5C2 2.36739 2.05268 2.24021 2.14645 2.14645C2.24021 2.05268 2.36739 2 2.5 2ZM2 25.5V15H13V26H2.5C2.36739 26 2.24021 25.9473 2.14645 25.8536C2.05268 25.7598 2 25.6326 2 25.5ZM25.5 26H15V15H26V25.5C26 25.6326 25.9473 25.7598 25.8536 25.8536C25.7598 25.9473 25.6326 26 25.5 26Z" fill="#82BF00"/>
</svg>
