<svg width="26" height="19" viewBox="0 0 26 19" fill="none" xmlns="http://www.w3.org/2000/svg">
<path d="M23.6667 10H20.8267C20.5615 10 20.3071 9.89464 20.1196 9.70711C19.932 9.51957 19.8267 9.26522 19.8267 9C19.8267 8.73478 19.932 8.48043 20.1196 8.29289C20.3071 8.10536 20.5615 8 20.8267 8H23.6667C23.7551 8 23.8399 7.96488 23.9024 7.90237C23.9649 7.83986 24 7.75507 24 7.66667V2.33333C24 2.24493 23.9649 2.16014 23.9024 2.09763C23.8399 2.03512 23.7551 2 23.6667 2H2.33333C2.24493 2 2.16014 2.03512 2.09763 2.09763C2.03512 2.16014 2 2.24493 2 2.33333V7.66667C2 7.75507 2.03512 7.83986 2.09763 7.90237C2.16014 7.96488 2.24493 8 2.33333 8H10.5067C10.7719 8 11.0262 8.10536 11.2138 8.29289C11.4013 8.48043 11.5067 8.73478 11.5067 9C11.5067 9.26522 11.4013 9.51957 11.2138 9.70711C11.0262 9.89464 10.7719 10 10.5067 10H2.33333C1.71557 9.9965 1.12411 9.74954 0.687285 9.31272C0.250457 8.87589 0.00350013 8.28443 0 7.66667V2.33333C0.00350013 1.71557 0.250457 1.12411 0.687285 0.687285C1.12411 0.250457 1.71557 0.00350013 2.33333 0H23.6667C24.2844 0.00350013 24.8759 0.250457 25.3127 0.687285C25.7495 1.12411 25.9965 1.71557 26 2.33333V7.66667C25.9965 8.28443 25.7495 8.87589 25.3127 9.31272C24.8759 9.74954 24.2844 9.9965 23.6667 10Z" fill="#82BF00"/>
<path d="M24.2925 16.2144L20.9992 13.6277C21.8561 12.2652 22.1682 10.6298 21.8733 9.04749C21.5783 7.46514 20.6979 6.05204 19.4076 5.08981C18.1172 4.12758 16.5117 3.68689 14.911 3.85557C13.3102 4.02424 11.8318 4.78989 10.7704 5.99993C9.70895 7.20996 9.14244 8.77553 9.18375 10.3846C9.22507 11.9937 9.87118 13.5281 10.9933 14.6821C12.1154 15.836 13.6312 16.5248 15.2385 16.6111C16.8458 16.6974 18.4266 16.1749 19.6658 15.1477L22.9592 17.8144C23.1373 17.9556 23.3586 18.0309 23.5858 18.0277C23.7946 18.0297 23.9988 17.9662 24.1697 17.8463C24.3406 17.7263 24.4697 17.5558 24.5388 17.3588C24.6079 17.1617 24.6136 16.948 24.5551 16.7475C24.4966 16.5471 24.3768 16.37 24.2125 16.2411L24.2925 16.2144ZM15.6658 14.6677C14.8088 14.6677 13.971 14.4136 13.2584 13.9374C12.5457 13.4613 11.9903 12.7845 11.6624 11.9927C11.3344 11.2009 11.2486 10.3296 11.4158 9.48902C11.583 8.64843 11.9957 7.87631 12.6017 7.27028C13.2077 6.66425 13.9799 6.25154 14.8204 6.08434C15.661 5.91714 16.5323 6.00295 17.3241 6.33093C18.1159 6.65891 18.7927 7.21433 19.2689 7.92694C19.745 8.63955 19.9992 9.47736 19.9992 10.3344C19.9956 11.4826 19.538 12.5828 18.7261 13.3947C17.9142 14.2066 16.814 14.6642 15.6658 14.6677Z" fill="#82BF00"/>
</svg>
