<svg width="40" height="40" viewBox="0 0 40 40" fill="none" xmlns="http://www.w3.org/2000/svg">
<g clip-path="url(#clip0_2122_2343)">
<path d="M40 20C40 8.9543 31.0457 0 20 0C8.9543 0 0 8.9543 0 20C0 31.0457 8.9543 40 20 40C31.0457 40 40 31.0457 40 20Z" fill="#F7DC66"/>
<path d="M25.1458 14.0695C24.6233 14.5892 24.6233 15.4288 25.1458 15.9485C25.6682 16.4683 26.5121 16.4683 27.0278 15.9485C27.5502 15.4288 27.5502 14.5892 27.0278 14.0695C26.5121 13.5498 25.6682 13.5498 25.1458 14.0695Z" fill="#131414"/>
<path d="M28.6209 18.7012L26.8192 20.5002C26.5915 20.7268 26.5915 21.0999 26.8192 21.3265C26.9331 21.4397 27.0804 21.4997 27.2345 21.4997C27.3818 21.4997 27.5359 21.4397 27.6497 21.3265L29.4514 19.5274C29.6791 19.3008 29.6791 18.9277 29.4514 18.7012C29.2237 18.4746 28.8486 18.4746 28.6209 18.7012Z" fill="#131414"/>
<path d="M26.8787 20.4405L25.077 22.2396C24.8493 22.4662 24.8493 22.8393 25.077 23.0658C25.1909 23.1791 25.3382 23.2391 25.4923 23.2391C25.6396 23.2391 25.7937 23.1791 25.9075 23.0658L27.7092 21.2668C27.9369 21.0402 27.9369 20.6671 27.7092 20.4405C27.4815 20.2073 27.1131 20.2073 26.8787 20.4405Z" fill="#131414"/>
<path d="M25.2146 22.0968L23.413 23.8959C23.1852 24.1224 23.1852 24.4956 23.413 24.7221C23.5268 24.8354 23.6742 24.8954 23.8282 24.8954C23.9756 24.8954 24.1296 24.8354 24.2435 24.7221L26.0451 22.9231C26.2729 22.6965 26.2729 22.3234 26.0451 22.0968C25.8174 21.8636 25.449 21.8636 25.2146 22.0968Z" fill="#131414"/>
<path d="M23.574 23.7325L21.7723 25.5314C21.5446 25.758 21.5446 26.1311 21.7723 26.3577C21.8862 26.4709 22.0335 26.531 22.1876 26.531C22.3349 26.531 22.489 26.4709 22.6028 26.3577L24.4045 24.5586C24.6322 24.3321 24.6322 23.959 24.4045 23.7325C24.1768 23.5059 23.8017 23.5059 23.574 23.7325Z" fill="#131414"/>
<path d="M22.8904 24.4121L21.0887 26.2111C20.861 26.4377 20.861 26.8108 21.0887 27.0374C21.2026 27.1506 21.3499 27.2106 21.504 27.2106C21.6513 27.2106 21.8054 27.1506 21.9192 27.0374L23.7209 25.2383C23.9486 25.0118 23.9486 24.6386 23.7209 24.4121C23.4932 24.1855 23.1181 24.1855 22.8904 24.4121Z" fill="#131414"/>
<path d="M25.1458 14.0567C24.6233 14.5764 24.6233 15.416 25.1458 15.9357C25.6682 16.4555 26.5121 16.4555 27.0278 15.9357C27.5502 15.416 27.5502 14.5764 27.0278 14.0567C26.5121 13.5436 25.6682 13.5436 25.1458 14.0567Z" fill="#131414"/>
<path d="M28.6209 18.6934L26.8192 20.4924C26.5915 20.719 26.5915 21.0921 26.8192 21.3187C26.9331 21.4319 27.0804 21.4919 27.2345 21.4919C27.3818 21.4919 27.5359 21.4319 27.6497 21.3187L29.4514 19.5196C29.6791 19.2931 29.6791 18.9199 29.4514 18.6934C29.2237 18.4668 28.8486 18.4668 28.6209 18.6934Z" fill="#131414"/>
<path d="M26.8787 20.4277L25.077 22.2268C24.8493 22.4534 24.8493 22.8265 25.077 23.053C25.1909 23.1663 25.3382 23.2263 25.4923 23.2263C25.6396 23.2263 25.7937 23.1663 25.9075 23.053L27.7092 21.254C27.9369 21.0274 27.9369 20.6543 27.7092 20.4277C27.4815 20.2012 27.1131 20.2012 26.8787 20.4277Z" fill="#131414"/>
<path d="M25.2146 22.0879L23.413 23.8869C23.1852 24.1135 23.1852 24.4866 23.413 24.7132C23.5268 24.8264 23.6742 24.8864 23.8282 24.8864C23.9756 24.8864 24.1296 24.8264 24.2435 24.7132L26.0451 22.9141C26.2729 22.6876 26.2729 22.3144 26.0451 22.0879C25.8174 21.8613 25.449 21.8613 25.2146 22.0879Z" fill="#131414"/>
<path d="M23.574 23.7232L21.7723 25.5223C21.5446 25.7489 21.5446 26.122 21.7723 26.3485C21.8862 26.4618 22.0335 26.5218 22.1876 26.5218C22.3349 26.5218 22.489 26.4618 22.6028 26.3485L24.4045 24.5495C24.6322 24.3229 24.6322 23.9498 24.4045 23.7232C24.1768 23.49 23.8017 23.4967 23.574 23.7232Z" fill="#131414"/>
<path d="M22.8904 24.4054L21.0887 26.2045C20.861 26.4311 20.861 26.8042 21.0887 27.0307C21.2026 27.144 21.3499 27.204 21.504 27.204C21.6513 27.204 21.8054 27.144 21.9192 27.0307L23.7209 25.2317C23.9486 25.0051 23.9486 24.632 23.7209 24.4054C23.4932 24.1722 23.1181 24.1722 22.8904 24.4054Z" fill="#131414"/>
<path d="M25.5301 7.91406L34.9025 17.2864L25.0365 27.1524L15.6641 17.7801L25.5301 7.91406Z" fill="white"/>
<path fill-rule="evenodd" clip-rule="evenodd" d="M10.8972 21.6868C10.3311 22.25 10.3311 23.1704 10.8972 23.7336L18.9745 31.7694C19.5406 32.3326 20.4658 32.3326 21.0319 31.7694L34.5611 18.3098C35.1272 17.7466 35.1272 16.8262 34.5611 16.263L26.4838 8.22708C25.9177 7.66389 24.9925 7.66389 24.4264 8.22708L10.8972 21.6868ZM19.5454 31.2019L11.4681 23.166C11.2171 22.9164 11.2171 22.5041 11.4681 22.2544L24.9973 8.79472C25.2483 8.54499 25.6627 8.54499 25.9137 8.79472L33.991 16.8306C34.242 17.0803 34.242 17.4926 33.991 17.7423L20.4618 31.2019C20.2108 31.4517 19.7965 31.4517 19.5454 31.2019Z" fill="#0E0F0F"/>
<path d="M29.1595 11.4857L19.0996 21.4938L17.2109 19.6215L27.2708 9.61328L29.1595 11.4857Z" fill="#0E0F0F"/>
<path d="M20.7444 31.4877C20.3358 31.8942 19.6661 31.8942 19.2575 31.4877L5.72829 18.0281C5.31973 17.6216 5.31973 16.9553 5.72829 16.5488L13.8056 8.51968C14.2142 8.11323 14.884 8.11323 15.2925 8.51968L28.8217 21.9793C29.2303 22.3858 29.2303 23.0521 28.8217 23.4586L20.7444 31.4877Z" fill="white"/>
<path fill-rule="evenodd" clip-rule="evenodd" d="M5.44409 18.3109L18.9733 31.7705C19.5394 32.3337 20.4646 32.3337 21.0307 31.7706L29.108 23.7415C29.6742 23.1782 29.6742 22.2578 29.1081 21.6946L15.5789 8.23489C15.0128 7.6717 14.0876 7.6717 13.5215 8.23489L5.44421 16.2639C4.87799 16.8272 4.87799 17.7477 5.44409 18.3109ZM28.5379 23.1737L20.4605 31.2028C20.2095 31.4525 19.7952 31.4525 19.5442 31.2028L6.01492 17.7432C5.76391 17.4934 5.76391 17.0812 6.01492 16.8315L14.0922 8.80245C14.3433 8.55261 14.7577 8.55261 15.0087 8.80234L28.5379 22.262C28.7889 22.5117 28.7889 22.9239 28.5379 23.1737Z" fill="#0E0F0F"/>
<path d="M18.7147 27.9232C18.3932 28.2431 17.8574 28.2431 17.5225 27.9099L7.52295 17.9617C7.19477 17.6352 7.18807 17.1022 7.51626 16.7824L13.9259 10.4057C14.2541 10.0792 14.7832 10.0858 15.1114 10.4123L25.1109 20.3538C25.4391 20.687 25.4458 21.2134 25.1243 21.5399L18.7147 27.9232Z" fill="white"/>
<path fill-rule="evenodd" clip-rule="evenodd" d="M17.4681 27.9687C17.8322 28.331 18.4191 28.3355 18.7744 27.982L25.184 21.5987C25.5368 21.2404 25.53 20.6641 25.1711 20.2997L15.171 10.3577C14.8102 9.99872 14.2301 9.99422 13.8714 10.351L7.46183 16.7277C7.10309 17.0773 7.10766 17.6616 7.46853 18.0206L17.4681 27.9687ZM25.0563 20.4127C25.3537 20.7146 25.3593 21.1911 25.0691 21.4858L18.6601 27.8686C18.3682 28.1589 17.8835 28.1551 17.582 27.8552L7.58246 17.9071C7.28441 17.6106 7.28065 17.1288 7.57517 16.8418L13.9854 10.4645C14.2806 10.1708 14.7586 10.1746 15.0567 10.4712L25.0563 20.4127Z" fill="#0E0F0F"/>
<path d="M23.7581 25.5574C24.0796 25.8772 24.0796 26.397 23.7581 26.7168C23.4366 27.0366 22.9142 27.0366 22.5927 26.7168C22.2712 26.397 22.2712 25.8772 22.5927 25.5574C22.9142 25.2309 23.4366 25.2309 23.7581 25.5574Z" fill="white"/>
<path fill-rule="evenodd" clip-rule="evenodd" d="M22.5636 26.9267C22.9502 27.3122 23.5781 27.3122 23.9648 26.9267C24.3513 26.5412 24.3514 25.9149 23.9651 25.5293C23.5784 25.1359 22.9496 25.1361 22.5629 25.5297C22.1769 25.9147 22.1769 26.5411 22.5636 26.9267ZM22.6886 25.6535C23.0067 25.3297 23.5218 25.3297 23.8399 25.6535C24.1575 25.9703 24.1575 26.4851 23.8399 26.8018C23.5223 27.1186 23.0062 27.1186 22.6886 26.8018C22.371 26.4851 22.371 25.9703 22.6886 25.6535Z" fill="#0E0F0F"/>
</g>
<defs>
<clipPath id="clip0_2122_2343">
<rect width="40" height="40" fill="white"/>
</clipPath>
</defs>
</svg>
