<svg width="26" height="26" viewBox="0 0 26 26" fill="none" xmlns="http://www.w3.org/2000/svg">
<path d="M13 26C10.4288 26 7.91543 25.2376 5.77759 23.8091C3.63975 22.3807 1.97351 20.3503 0.989572 17.9749C0.00563264 15.5995 -0.251811 12.9856 0.249797 10.4638C0.751405 7.94208 1.98954 5.6257 3.80762 3.80762C5.6257 1.98954 7.94208 0.751405 10.4638 0.249797C12.9856 -0.251811 15.5995 0.00563264 17.9749 0.989572C20.3503 1.97351 22.3807 3.63975 23.8091 5.77759C25.2376 7.91543 26 10.4288 26 13C25.9965 16.4467 24.6257 19.7513 22.1885 22.1885C19.7513 24.6257 16.4467 25.9965 13 26ZM13 2.00001C10.8244 2.00001 8.69767 2.64514 6.88873 3.85384C5.07979 5.06254 3.6699 6.7805 2.83733 8.79049C2.00477 10.8005 1.78693 13.0122 2.21137 15.146C2.63581 17.2798 3.68345 19.2398 5.22183 20.7782C6.76021 22.3166 8.72022 23.3642 10.854 23.7886C12.9878 24.2131 15.1995 23.9952 17.2095 23.1627C19.2195 22.3301 20.9375 20.9202 22.1462 19.1113C23.3549 17.3023 24 15.1756 24 13C23.9965 10.0837 22.8364 7.28786 20.7743 5.22573C18.7121 3.16359 15.9163 2.00353 13 2.00001Z" fill="#2D2D2D"/>
<path d="M17.666 19.3359C17.0727 19.3359 16.4927 19.16 15.9993 18.8303C15.506 18.5007 15.1214 18.0322 14.8944 17.484C14.6673 16.9358 14.6079 16.3326 14.7237 15.7507C14.8394 15.1687 15.1251 14.6342 15.5447 14.2146C15.9643 13.7951 16.4988 13.5093 17.0807 13.3936C17.6627 13.2778 18.2659 13.3372 18.8141 13.5643C19.3622 13.7914 19.8308 14.1759 20.1604 14.6692C20.4901 15.1626 20.666 15.7426 20.666 16.3359C20.666 17.1316 20.3499 17.8947 19.7873 18.4573C19.2247 19.0199 18.4617 19.3359 17.666 19.3359ZM17.666 15.3359C17.4682 15.3359 17.2749 15.3946 17.1104 15.5045C16.946 15.6144 16.8178 15.7705 16.7421 15.9533C16.6665 16.136 16.6466 16.337 16.6852 16.531C16.7238 16.725 16.8191 16.9032 16.9589 17.043C17.0988 17.1829 17.2769 17.2781 17.4709 17.3167C17.6649 17.3553 17.866 17.3355 18.0487 17.2598C18.2314 17.1841 18.3876 17.056 18.4975 16.8915C18.6074 16.7271 18.666 16.5337 18.666 16.3359C18.6626 16.0718 18.5561 15.8194 18.3693 15.6327C18.1825 15.4459 17.9302 15.3394 17.666 15.3359Z" fill="#2D2D2D"/>
<path d="M8.33301 12.668C7.73967 12.668 7.15965 12.492 6.6663 12.1624C6.17295 11.8327 5.78843 11.3642 5.56137 10.816C5.33431 10.2678 5.2749 9.66464 5.39065 9.0827C5.50641 8.50076 5.79213 7.96621 6.21169 7.54665C6.63125 7.12709 7.1658 6.84137 7.74774 6.72561C8.32968 6.60986 8.93288 6.66927 9.48106 6.89633C10.0292 7.12339 10.4978 7.50791 10.8274 8.00126C11.1571 8.49461 11.333 9.07463 11.333 9.66797C11.333 10.4636 11.0169 11.2267 10.4543 11.7893C9.89172 12.3519 9.12866 12.668 8.33301 12.668ZM8.33301 8.66797C8.13523 8.66797 7.94189 8.72662 7.77744 8.8365C7.61299 8.94638 7.48482 9.10256 7.40913 9.28529C7.33344 9.46801 7.31364 9.66908 7.35222 9.86306C7.39081 10.057 7.48605 10.2352 7.6259 10.3751C7.76575 10.5149 7.94394 10.6102 8.13792 10.6488C8.3319 10.6873 8.53297 10.6675 8.71569 10.5918C8.89842 10.5162 9.0546 10.388 9.16448 10.2235C9.27436 10.0591 9.33301 9.86575 9.33301 9.66797C9.32956 9.40383 9.22309 9.15148 9.0363 8.96468C8.8495 8.77789 8.59715 8.67142 8.33301 8.66797Z" fill="#2D2D2D"/>
<path d="M9 19.3346C8.78348 19.3356 8.57264 19.2653 8.4 19.1346C8.18783 18.9755 8.04756 18.7386 8.01005 18.4761C7.97255 18.2135 8.04087 17.9468 8.2 17.7346L16.2 7.06797C16.2788 6.96291 16.3775 6.8744 16.4905 6.80749C16.6035 6.74059 16.7286 6.69659 16.8586 6.67802C16.9886 6.65945 17.121 6.66666 17.2482 6.69926C17.3754 6.73185 17.4949 6.78918 17.6 6.86797C17.7051 6.94676 17.7936 7.04548 17.8605 7.15848C17.9274 7.27147 17.9714 7.39655 17.99 7.52655C18.0085 7.65655 18.0013 7.78894 17.9687 7.91615C17.9361 8.04336 17.8788 8.16291 17.8 8.26797L9.8 18.9346C9.70759 19.0596 9.58695 19.161 9.44793 19.2305C9.30891 19.3 9.15543 19.3357 9 19.3346Z" fill="#2D2D2D"/>
</svg>
