<svg width="26" height="26" viewBox="0 0 26 26" fill="none" xmlns="http://www.w3.org/2000/svg">
<path d="M19.6668 7.33206C19.475 7.33298 19.2871 7.27798 19.1261 7.17378C18.965 7.06959 18.8379 6.92072 18.7601 6.7454L16.6935 2.2254C16.6763 2.17606 16.6482 2.13125 16.6112 2.09431C16.5743 2.05736 16.5295 2.02925 16.4801 2.01206C16.416 1.98612 16.3443 1.98612 16.2801 2.01206L6.81345 7.21206C6.69789 7.2751 6.57104 7.31475 6.44015 7.32877C6.30926 7.34278 6.1769 7.33087 6.05061 7.29373C5.92432 7.25659 5.80659 7.19493 5.70413 7.11229C5.60167 7.02964 5.51649 6.92763 5.45345 6.81206C5.39042 6.6965 5.35076 6.56965 5.33675 6.43876C5.32274 6.30788 5.33464 6.17551 5.37179 6.04922C5.4468 5.79417 5.62006 5.57937 5.85345 5.45206L15.3335 0.27873C15.601 0.128368 15.8973 0.0363703 16.203 0.00879278C16.5086 -0.0187847 16.8167 0.0186828 17.1068 0.11873C17.4079 0.238767 17.6815 0.4189 17.9107 0.648138C18.1399 0.877376 18.3201 1.15091 18.4401 1.45206L20.5068 5.9854C20.5627 6.10522 20.5942 6.23494 20.5996 6.36704C20.605 6.49914 20.5842 6.631 20.5383 6.755C20.4925 6.879 20.4224 6.99267 20.3323 7.08943C20.2422 7.18619 20.1339 7.26413 20.0135 7.31873C19.8997 7.3448 19.7822 7.34932 19.6668 7.33206Z" fill="#2D2D2D"/>
<path d="M19.6663 16.9987C20.4027 16.9987 20.9997 16.4017 20.9997 15.6654C20.9997 14.929 20.4027 14.332 19.6663 14.332C18.93 14.332 18.333 14.929 18.333 15.6654C18.333 16.4017 18.93 16.9987 19.6663 16.9987Z" fill="#2D2D2D"/>
<path d="M22.3333 25.9987H2.33333C1.71557 25.9952 1.12411 25.7482 0.687285 25.3114C0.250457 24.8746 0.00350013 24.2831 0 23.6654V7.66536C0.00350013 7.04761 0.250457 6.45614 0.687285 6.01932C1.12411 5.58249 1.71557 5.33553 2.33333 5.33203H22.3333C22.9511 5.33553 23.5426 5.58249 23.9794 6.01932C24.4162 6.45614 24.6632 7.04761 24.6667 7.66536V11.6654C24.6667 11.9306 24.5613 12.1849 24.3738 12.3725C24.1862 12.56 23.9319 12.6654 23.6667 12.6654C23.4014 12.6654 23.1471 12.56 22.9596 12.3725C22.772 12.1849 22.6667 11.9306 22.6667 11.6654V7.66536C22.6667 7.57696 22.6315 7.49217 22.569 7.42966C22.5065 7.36715 22.4217 7.33203 22.3333 7.33203H2.33333C2.24493 7.33203 2.16014 7.36715 2.09763 7.42966C2.03512 7.49217 2 7.57696 2 7.66536V23.6654C2 23.7538 2.03512 23.8386 2.09763 23.9011C2.16014 23.9636 2.24493 23.9987 2.33333 23.9987H22.3333C22.4217 23.9987 22.5065 23.9636 22.569 23.9011C22.6315 23.8386 22.6667 23.7538 22.6667 23.6654V19.6654C22.6667 19.4001 22.772 19.1458 22.9596 18.9583C23.1471 18.7707 23.4014 18.6654 23.6667 18.6654C23.9319 18.6654 24.1862 18.7707 24.3738 18.9583C24.5613 19.1458 24.6667 19.4001 24.6667 19.6654V23.6654C24.6632 24.2831 24.4162 24.8746 23.9794 25.3114C23.5426 25.7482 22.9511 25.9952 22.3333 25.9987Z" fill="#2D2D2D"/>
<path d="M23.667 20.6641H19.667C18.3409 20.6641 17.0691 20.1373 16.1315 19.1996C15.1938 18.2619 14.667 16.9901 14.667 15.6641C14.667 14.338 15.1938 13.0662 16.1315 12.1285C17.0691 11.1908 18.3409 10.6641 19.667 10.6641H23.667C24.2848 10.6676 24.8762 10.9145 25.313 11.3513C25.7499 11.7882 25.9968 12.3796 26.0003 12.9974V18.3307C25.9968 18.9485 25.7499 19.54 25.313 19.9768C24.8762 20.4136 24.2848 20.6606 23.667 20.6641ZM19.667 12.6641C18.8713 12.6641 18.1083 12.9801 17.5457 13.5427C16.9831 14.1054 16.667 14.8684 16.667 15.6641C16.667 16.4597 16.9831 17.2228 17.5457 17.7854C18.1083 18.348 18.8713 18.6641 19.667 18.6641H23.667C23.7554 18.6641 23.8402 18.6289 23.9027 18.5664C23.9652 18.5039 24.0003 18.4191 24.0003 18.3307V12.9974C24.0003 12.909 23.9652 12.8242 23.9027 12.7617C23.8402 12.6992 23.7554 12.6641 23.667 12.6641H19.667Z" fill="#2D2D2D"/>
</svg>
