<svg width="26" height="26" viewBox="0 0 26 26" fill="none" xmlns="http://www.w3.org/2000/svg">
<path d="M13 26C10.4288 26 7.91543 25.2376 5.77759 23.8091C3.63975 22.3807 1.97351 20.3503 0.989572 17.9749C0.00563264 15.5995 -0.251811 12.9856 0.249797 10.4638C0.751405 7.94208 1.98954 5.6257 3.80762 3.80762C5.6257 1.98954 7.94208 0.751405 10.4638 0.249797C12.9856 -0.251811 15.5995 0.00563264 17.9749 0.989572C20.3503 1.97351 22.3807 3.63975 23.8091 5.77759C25.2376 7.91543 26 10.4288 26 13C25.9965 16.4467 24.6257 19.7513 22.1885 22.1885C19.7513 24.6257 16.4467 25.9965 13 26ZM13 2.00001C10.8244 2.00001 8.69767 2.64514 6.88873 3.85384C5.07979 5.06254 3.6699 6.7805 2.83733 8.79049C2.00477 10.8005 1.78693 13.0122 2.21137 15.146C2.63581 17.2798 3.68345 19.2398 5.22183 20.7782C6.76021 22.3166 8.72022 23.3642 10.854 23.7886C12.9878 24.2131 15.1995 23.9952 17.2095 23.1627C19.2195 22.3301 20.9375 20.9202 22.1462 19.1113C23.3549 17.3023 24 15.1756 24 13C23.9965 10.0837 22.8364 7.28786 20.7743 5.22573C18.7121 3.16359 15.9163 2.00353 13 2.00001Z" fill="#2D2D2D"/>
<path d="M17 16.6654C16.8001 16.6657 16.6048 16.6052 16.44 16.492L12.44 13.8254C12.3056 13.7331 12.1954 13.6098 12.1188 13.4659C12.0422 13.322 12.0014 13.1617 12 12.9987V6.33203C12 6.06681 12.1054 5.81246 12.2929 5.62492C12.4804 5.43739 12.7348 5.33203 13 5.33203C13.2652 5.33203 13.5196 5.43739 13.7071 5.62492C13.8946 5.81246 14 6.06681 14 6.33203V12.4654L17.56 14.8387C17.7366 14.9589 17.87 15.1324 17.9408 15.3339C18.0116 15.5354 18.016 15.7543 17.9534 15.9585C17.8908 16.1627 17.7645 16.3415 17.5929 16.4687C17.4213 16.5959 17.2136 16.6648 17 16.6654Z" fill="#2D2D2D"/>
</svg>
