<svg width="26" height="26" viewBox="0 0 26 26" fill="none" xmlns="http://www.w3.org/2000/svg">
<path d="M13 26C9.55327 25.9965 6.24872 24.6257 3.81151 22.1885C1.3743 19.7513 0.00352968 16.4467 0 13C0 12.7348 0.105357 12.4804 0.292893 12.2929C0.480429 12.1054 0.734784 12 1 12C1.26522 12 1.51957 12.1054 1.70711 12.2929C1.89464 12.4804 2 12.7348 2 13C2.00353 15.9163 3.16359 18.7121 5.22572 20.7743C7.28786 22.8364 10.0837 23.9965 13 24C14.6488 24.0057 16.2774 23.6366 17.7626 22.9205C19.2478 22.2045 20.5509 21.1602 21.5733 19.8667C21.6556 19.7634 21.7575 19.6773 21.873 19.6133C21.9886 19.5494 22.1156 19.5088 22.2469 19.494C22.3781 19.4791 22.511 19.4902 22.6379 19.5267C22.7649 19.5632 22.8834 19.6244 22.9867 19.7067C23.09 19.789 23.1761 19.8908 23.24 20.0064C23.304 20.1219 23.3445 20.249 23.3594 20.3802C23.3742 20.5114 23.3631 20.6443 23.3266 20.7713C23.2901 20.8982 23.229 21.0167 23.1467 21.12C21.9339 22.6471 20.3909 23.8795 18.6335 24.7248C16.8761 25.57 14.9501 26.006 13 26Z" fill="#82BF00"/>
<path d="M22.9993 26.0013C22.7352 25.9978 22.4829 25.8914 22.2961 25.7046C22.1093 25.5178 22.0028 25.2654 21.9993 25.0013V20.668H17.666C17.4008 20.668 17.1464 20.5626 16.9589 20.3751C16.7714 20.1875 16.666 19.9332 16.666 19.668C16.666 19.4028 16.7714 19.1484 16.9589 18.9609C17.1464 18.7733 17.4008 18.668 17.666 18.668H22.9993C23.2635 18.6714 23.5158 18.7779 23.7026 18.9647C23.8894 19.1515 23.9959 19.4038 23.9993 19.668V25.0013C23.9959 25.2654 23.8894 25.5178 23.7026 25.7046C23.5158 25.8914 23.2635 25.9978 22.9993 26.0013Z" fill="#82BF00"/>
<path d="M13 0C9.63686 0.00295907 6.4077 1.31854 4 3.66667V1C4 0.734784 3.89464 0.480429 3.70711 0.292893C3.51957 0.105357 3.26522 0 3 0C2.73478 0 2.48043 0.105357 2.29289 0.292893C2.10536 0.480429 2 0.734784 2 1V6.33333C2.00345 6.59748 2.10992 6.84983 2.29671 7.03662C2.4835 7.22341 2.73586 7.32988 3 7.33333H8.33333C8.59855 7.33333 8.8529 7.22798 9.04044 7.04044C9.22798 6.8529 9.33333 6.59855 9.33333 6.33333C9.33333 6.06812 9.22798 5.81376 9.04044 5.62623C8.8529 5.43869 8.59855 5.33333 8.33333 5.33333H5.13333C6.65757 3.76447 8.61542 2.68631 10.7561 2.23691C12.8968 1.78751 15.123 1.98735 17.1494 2.81082C19.1759 3.63429 20.9104 5.04391 22.1309 6.85915C23.3513 8.67439 24.0021 10.8126 24 13C24 13.2652 24.1054 13.5196 24.2929 13.7071C24.4804 13.8946 24.7348 14 25 14C25.2652 14 25.5196 13.8946 25.7071 13.7071C25.8946 13.5196 26 13.2652 26 13C25.9965 9.55327 24.6257 6.24872 22.1885 3.81151C19.7513 1.3743 16.4467 0.00352968 13 0Z" fill="#82BF00"/>
</svg>
