<svg width="27" height="27" viewBox="0 0 27 27" fill="none" xmlns="http://www.w3.org/2000/svg">
<path d="M12.668 16.3346C12.4038 16.3312 12.1515 16.2247 11.9647 16.0379C11.7779 15.8511 11.6714 15.5988 11.668 15.3346V8.66797C11.668 8.40275 11.7733 8.1484 11.9609 7.96086C12.1484 7.77333 12.4028 7.66797 12.668 7.66797C12.9332 7.66797 13.1875 7.77333 13.3751 7.96086C13.5626 8.1484 13.668 8.40275 13.668 8.66797V15.3346C13.6645 15.5988 13.558 15.8511 13.3713 16.0379C13.1845 16.2247 12.9321 16.3312 12.668 16.3346Z" fill="#82BF00"/>
<path d="M16.668 16.3359C16.4038 16.3325 16.1515 16.226 15.9647 16.0392C15.7779 15.8524 15.6714 15.6001 15.668 15.3359V11.3359C15.668 11.0707 15.7733 10.8164 15.9609 10.6288C16.1484 10.4413 16.4028 10.3359 16.668 10.3359C16.9332 10.3359 17.1875 10.4413 17.3751 10.6288C17.5626 10.8164 17.668 11.0707 17.668 11.3359V15.3359C17.6645 15.6001 17.558 15.8524 17.3713 16.0392C17.1845 16.226 16.9321 16.3325 16.668 16.3359Z" fill="#82BF00"/>
<path d="M8.66797 16.3346C8.40383 16.3312 8.15147 16.2247 7.96468 16.0379C7.77789 15.8511 7.67142 15.5988 7.66797 15.3346V12.668C7.66797 12.4028 7.77333 12.1484 7.96086 11.9609C8.1484 11.7733 8.40275 11.668 8.66797 11.668C8.93319 11.668 9.18754 11.7733 9.37508 11.9609C9.56261 12.1484 9.66797 12.4028 9.66797 12.668V15.3346C9.66452 15.5988 9.55805 15.8511 9.37126 16.0379C9.18446 16.2247 8.93211 16.3312 8.66797 16.3346Z" fill="#82BF00"/>
<path d="M26.7074 25.2941L21.5874 20.1741C23.5291 17.868 24.5052 14.9011 24.3118 11.8926C24.1185 8.88415 22.7707 6.0666 20.5498 4.02803C18.3288 1.98946 15.4064 0.887411 12.3924 0.951897C9.37844 1.01638 6.50582 2.24242 4.37412 4.37412C2.24242 6.50582 1.01638 9.37844 0.951897 12.3924C0.887411 15.4064 1.98946 18.3288 4.02803 20.5498C6.0666 22.7707 8.88415 24.1185 11.8926 24.3118C14.9011 24.5052 17.868 23.5291 20.1741 21.5874L25.2941 26.7074C25.4816 26.8947 25.7357 26.9999 26.0007 26.9999C26.2657 26.9999 26.5199 26.8947 26.7074 26.7074C26.8947 26.5199 26.9999 26.2657 26.9999 26.0007C26.9999 25.7357 26.8947 25.4816 26.7074 25.2941ZM12.6674 22.3341C10.7555 22.3341 8.88657 21.7671 7.29689 20.7049C5.70722 19.6428 4.46821 18.133 3.73657 16.3667C3.00492 14.6003 2.81349 12.6567 3.18648 10.7815C3.55947 8.90638 4.48013 7.18395 5.83204 5.83204C7.18395 4.48013 8.90638 3.55947 10.7815 3.18648C12.6567 2.81349 14.6003 3.00492 16.3667 3.73657C18.133 4.46821 19.6428 5.70722 20.7049 7.29689C21.7671 8.88657 22.3341 10.7555 22.3341 12.6674C22.3305 15.2301 21.311 17.6868 19.4989 19.4989C17.6868 21.311 15.2301 22.3305 12.6674 22.3341Z" fill="#82BF00"/>
</svg>
