<svg width="40" height="40" viewBox="0 0 40 40" fill="none" xmlns="http://www.w3.org/2000/svg">
<path d="M32.1497 14.0167L29.9997 12.2833V5.73333C29.9997 5.20732 29.7908 4.70285 29.4188 4.3309C29.0469 3.95896 28.5424 3.75 28.0164 3.75H23.4997C22.9807 3.75416 22.4837 3.95992 22.1136 4.32379C21.7435 4.68766 21.5294 5.18115 21.5164 5.7L19.6331 4.23333C19.2626 3.93435 18.8008 3.77128 18.3247 3.77128C17.8486 3.77128 17.3869 3.93435 17.0164 4.23333L4.53306 13.9833C4.19662 14.2611 3.95265 14.6347 3.83357 15.0545C3.7145 15.4742 3.72594 15.9202 3.86639 16.3333L4.76639 19.05C4.87621 19.3716 5.06015 19.6629 5.30335 19.9004C5.54656 20.1378 5.8422 20.3146 6.16639 20.4167C6.32881 20.4657 6.49685 20.4937 6.66639 20.5V30.1833C6.67077 30.9069 6.96015 31.5996 7.4718 32.1113C7.98346 32.6229 8.67615 32.9123 9.39973 32.9167H21.4997C21.8312 32.9167 22.1492 32.785 22.3836 32.5506C22.618 32.3161 22.7497 31.9982 22.7497 31.6667C22.7497 31.3351 22.618 31.0172 22.3836 30.7828C22.1492 30.5484 21.8312 30.4167 21.4997 30.4167H15.1331V25.7333C15.1375 24.8875 15.4766 24.0779 16.0762 23.4814C16.6758 22.8848 17.4872 22.55 18.3331 22.55C18.6632 22.5457 18.9787 22.4126 19.2122 22.1791C19.4457 21.9456 19.5787 21.6302 19.5831 21.3C19.5875 21.1323 19.5586 20.9653 19.4979 20.8089C19.4373 20.6524 19.3462 20.5096 19.2299 20.3886C19.1136 20.2677 18.9744 20.171 18.8205 20.1043C18.6665 20.0376 18.5008 20.0021 18.3331 20C16.8257 20 15.3802 20.5988 14.3143 21.6646C13.2485 22.7304 12.6497 24.176 12.6497 25.6833V30.3667H9.43306C9.37118 30.3667 9.31183 30.3421 9.26807 30.2983C9.22431 30.2546 9.19973 30.1952 9.19973 30.1333V19.2333L18.3331 12.3667L25.5831 17.8333C25.7144 17.9318 25.8638 18.0035 26.0228 18.0442C26.1819 18.085 26.3473 18.094 26.5098 18.0708C26.6723 18.0476 26.8287 17.9926 26.9699 17.9089C27.1112 17.8253 27.2346 17.7147 27.3331 17.5833C27.4316 17.452 27.5032 17.3026 27.544 17.1436C27.5847 16.9845 27.5937 16.8191 27.5705 16.6566C27.5473 16.4941 27.4923 16.3377 27.4087 16.1965C27.325 16.0552 27.2144 15.9318 27.0831 15.8333L19.6331 10.2167C19.2603 9.93015 18.8032 9.77482 18.3331 9.77482C17.8629 9.77482 17.4059 9.93015 17.0331 10.2167L7.18306 17.6L6.98306 17.7667L6.31639 15.7667L18.3331 6.38333L30.3331 15.7667L29.5997 17.9333C29.5399 18.0905 29.5124 18.258 29.5189 18.426C29.5253 18.594 29.5656 18.759 29.6373 18.9111C29.709 19.0631 29.8107 19.1992 29.9361 19.311C30.0616 19.4229 30.2084 19.5083 30.3677 19.5622C30.5269 19.616 30.6954 19.6372 30.8631 19.6244C31.0307 19.6116 31.194 19.5651 31.3433 19.4877C31.4925 19.4103 31.6247 19.3036 31.7317 19.174C31.8388 19.0444 31.9186 18.8945 31.9664 18.7333L32.8164 16.2333C32.9463 15.8401 32.952 15.4164 32.8328 15.0198C32.7135 14.6232 32.475 14.273 32.1497 14.0167ZM24.0164 6.25H27.4331V10.3333L24.0164 7.65V6.25Z" fill="#82BF00"/>
<path d="M25.8324 28.7496C25.5108 28.7251 25.2117 28.5755 24.9991 28.333L23.3324 26.6663C23.1519 26.5801 22.9948 26.4519 22.8742 26.2924C22.7535 26.1329 22.6729 25.9468 22.6391 25.7497C22.6053 25.5526 22.6192 25.3503 22.6798 25.1597C22.7404 24.9691 22.8458 24.7959 22.9872 24.6545C23.1286 24.5131 23.3019 24.4076 23.4925 24.3471C23.683 24.2865 23.8854 24.2725 24.0825 24.3064C24.2796 24.3402 24.4657 24.4208 24.6252 24.5414C24.7847 24.6621 24.9129 24.8192 24.9991 24.9996L25.7824 25.783L28.3324 23.333C28.5656 23.2216 28.8277 23.1852 29.0825 23.2289C29.3372 23.2727 29.5722 23.3943 29.755 23.5771C29.9378 23.7598 30.0594 23.9948 30.1031 24.2496C30.1468 24.5043 30.1105 24.7664 29.9991 24.9996L26.6657 28.333C26.4531 28.5755 26.154 28.7251 25.8324 28.7496Z" fill="#82BF00"/>
<path d="M26.6657 36.149C26.2954 36.149 25.9283 36.0813 25.5824 35.949C23.059 34.9479 20.8971 33.2074 19.3802 30.9559C17.8634 28.7044 17.0624 26.0471 17.0824 23.3324V20.599C17.0755 20.1891 17.1907 19.7865 17.4133 19.4422C17.6358 19.0979 17.9558 18.8276 18.3324 18.6657L25.8324 15.6657C26.3239 15.4656 26.8742 15.4656 27.3657 15.6657L34.9991 18.6657C35.3881 18.8172 35.7222 19.0831 35.9572 19.4282C36.1923 19.7733 36.3173 20.1815 36.3157 20.599V23.3324C36.3256 26.0386 35.52 28.685 34.0038 30.9266C32.4876 33.1682 30.3312 34.901 27.8157 35.899C27.4524 36.0566 27.0617 36.1416 26.6657 36.149ZM19.5824 20.8824V23.3324C19.5753 25.5374 20.2331 27.6934 21.4699 29.5189C22.7068 31.3445 24.4652 32.7547 26.5157 33.5657C26.5618 33.5905 26.6134 33.6035 26.6657 33.6035C26.7181 33.6035 26.7696 33.5905 26.8157 33.5657C28.8663 32.7547 30.6247 31.3445 31.8615 29.5189C33.0984 27.6934 33.7562 25.5374 33.7491 23.3324V20.8324L26.6657 18.049L19.5824 20.8824Z" fill="#82BF00"/>
</svg>
