<svg width="40" height="40" viewBox="0 0 40 40" fill="none" xmlns="http://www.w3.org/2000/svg">
<path d="M31.6667 32.9154H6.66667C5.89447 32.911 5.15514 32.6023 4.60911 32.0563C4.06307 31.5102 3.75438 30.7709 3.75 29.9987V9.9987C3.75438 9.2265 4.06307 8.48717 4.60911 7.94114C5.15514 7.3951 5.89447 7.08641 6.66667 7.08203H31.6667C32.4389 7.08641 33.1782 7.3951 33.7242 7.94114C34.2703 8.48717 34.579 9.2265 34.5833 9.9987V14.9987C34.5833 15.3302 34.4516 15.6482 34.2172 15.8826C33.9828 16.117 33.6649 16.2487 33.3333 16.2487C33.0018 16.2487 32.6839 16.117 32.4495 15.8826C32.215 15.6482 32.0833 15.3302 32.0833 14.9987V9.9987C32.0833 9.88819 32.0394 9.78221 31.9613 9.70407C31.8832 9.62593 31.7772 9.58203 31.6667 9.58203H6.66667C6.55616 9.58203 6.45018 9.62593 6.37204 9.70407C6.2939 9.78221 6.25 9.88819 6.25 9.9987V29.9987C6.25 30.1092 6.2939 30.2152 6.37204 30.2933C6.45018 30.3715 6.55616 30.4154 6.66667 30.4154H31.6667C31.7772 30.4154 31.8832 30.3715 31.9613 30.2933C32.0394 30.2152 32.0833 30.1092 32.0833 29.9987V24.9987C32.0833 24.6672 32.215 24.3492 32.4495 24.1148C32.6839 23.8804 33.0018 23.7487 33.3333 23.7487C33.6649 23.7487 33.9828 23.8804 34.2172 24.1148C34.4516 24.3492 34.5833 24.6672 34.5833 24.9987V29.9987C34.579 30.7709 34.2703 31.5102 33.7242 32.0563C33.1782 32.6023 32.4389 32.911 31.6667 32.9154Z" fill="#82BF00"/>
<path d="M33.3327 26.25H26.666C25.0084 26.25 23.4187 25.5915 22.2466 24.4194C21.0745 23.2473 20.416 21.6576 20.416 20C20.416 18.3424 21.0745 16.7527 22.2466 15.5806C23.4187 14.4085 25.0084 13.75 26.666 13.75H33.3327C34.1049 13.7544 34.8442 14.0631 35.3902 14.6091C35.9363 15.1551 36.245 15.8945 36.2493 16.6667V23.3333C36.245 24.1055 35.9363 24.8449 35.3902 25.3909C34.8442 25.9369 34.1049 26.2456 33.3327 26.25ZM26.666 16.25C25.6715 16.25 24.7176 16.6451 24.0144 17.3483C23.3111 18.0516 22.916 19.0054 22.916 20C22.916 20.9946 23.3111 21.9484 24.0144 22.6516C24.7176 23.3549 25.6715 23.75 26.666 23.75H33.3327C33.4432 23.75 33.5492 23.7061 33.6273 23.628C33.7055 23.5498 33.7493 23.4438 33.7493 23.3333V16.6667C33.7493 16.5562 33.7055 16.4502 33.6273 16.372C33.5492 16.2939 33.4432 16.25 33.3327 16.25H26.666Z" fill="#82BF00"/>
<path d="M26.6654 20.8346C27.1256 20.8346 27.4987 20.4615 27.4987 20.0013C27.4987 19.5411 27.1256 19.168 26.6654 19.168C26.2051 19.168 25.832 19.5411 25.832 20.0013C25.832 20.4615 26.2051 20.8346 26.6654 20.8346Z" fill="#82BF00"/>
<path d="M26.6654 22.0846C26.2533 22.0846 25.8505 21.9625 25.5079 21.7335C25.1653 21.5046 24.8983 21.1792 24.7406 20.7986C24.5829 20.4179 24.5417 19.999 24.6221 19.5949C24.7024 19.1907 24.9009 18.8195 25.1922 18.5282C25.4836 18.2368 25.8548 18.0384 26.2589 17.958C26.6631 17.8776 27.0819 17.9189 27.4626 18.0766C27.8433 18.2342 28.1687 18.5013 28.3976 18.8439C28.6265 19.1865 28.7487 19.5893 28.7487 20.0013C28.7487 20.5538 28.5292 21.0837 28.1385 21.4744C27.7478 21.8651 27.2179 22.0846 26.6654 22.0846ZM26.6654 19.5846C26.5549 19.5846 26.4489 19.6285 26.3707 19.7067C26.2926 19.7848 26.2487 19.8908 26.2487 20.0013C26.2487 20.468 27.082 20.468 27.082 20.0013C27.082 19.8908 27.0381 19.7848 26.96 19.7067C26.8819 19.6285 26.7759 19.5846 26.6654 19.5846Z" fill="#82BF00"/>
</svg>
