<svg width="40" height="40" viewBox="0 0 40 40" fill="none" xmlns="http://www.w3.org/2000/svg">
<path d="M35 17.918H5C4.66848 17.918 4.35054 17.7863 4.11612 17.5519C3.8817 17.3174 3.75 16.9995 3.75 16.668C3.75 16.3364 3.8817 16.0185 4.11612 15.7841C4.35054 15.5497 4.66848 15.418 5 15.418H35C35.3315 15.418 35.6495 15.5497 35.8839 15.7841C36.1183 16.0185 36.25 16.3364 36.25 16.668C36.25 16.9995 36.1183 17.3174 35.8839 17.5519C35.6495 17.7863 35.3315 17.918 35 17.918Z" fill="#82BF00"/>
<path d="M33.3333 31.25H6.66667C5.89447 31.2456 5.15514 30.9369 4.60911 30.3909C4.06307 29.8449 3.75438 29.1055 3.75 28.3333V11.6667C3.75438 10.8945 4.06307 10.1551 4.60911 9.60911C5.15514 9.06307 5.89447 8.75438 6.66667 8.75H33.3333C34.1055 8.75438 34.8449 9.06307 35.3909 9.60911C35.9369 10.1551 36.2456 10.8945 36.25 11.6667V28.3333C36.2456 29.1055 35.9369 29.8449 35.3909 30.3909C34.8449 30.9369 34.1055 31.2456 33.3333 31.25ZM6.66667 11.25C6.55616 11.25 6.45018 11.2939 6.37204 11.372C6.2939 11.4502 6.25 11.5562 6.25 11.6667V28.3333C6.25 28.4438 6.2939 28.5498 6.37204 28.628C6.45018 28.7061 6.55616 28.75 6.66667 28.75H33.3333C33.4438 28.75 33.5498 28.7061 33.628 28.628C33.7061 28.5498 33.75 28.4438 33.75 28.3333V11.6667C33.75 11.5562 33.7061 11.4502 33.628 11.372C33.5498 11.2939 33.4438 11.25 33.3333 11.25H6.66667Z" fill="#82BF00"/>
<path d="M13.3333 26.25H10C9.66848 26.25 9.35054 26.1183 9.11612 25.8839C8.8817 25.6495 8.75 25.3315 8.75 25C8.75 24.6685 8.8817 24.3505 9.11612 24.1161C9.35054 23.8817 9.66848 23.75 10 23.75H13.3333C13.6649 23.75 13.9828 23.8817 14.2172 24.1161C14.4516 24.3505 14.5833 24.6685 14.5833 25C14.5833 25.3315 14.4516 25.6495 14.2172 25.8839C13.9828 26.1183 13.6649 26.25 13.3333 26.25Z" fill="#82BF00"/>
</svg>
