<svg width="40" height="40" viewBox="0 0 40 40" fill="none" xmlns="http://www.w3.org/2000/svg">
<path d="M30.0007 36.25H24.1673C23.8371 36.2457 23.5217 36.1126 23.2882 35.8791C23.0547 35.6456 22.9216 35.3302 22.9173 35V25C22.9173 24.8895 22.8734 24.7835 22.7953 24.7054C22.7171 24.6272 22.6112 24.5833 22.5007 24.5833H17.5007C17.3901 24.5833 17.2842 24.6272 17.206 24.7054C17.1279 24.7835 17.084 24.8895 17.084 25V35C17.0797 35.3302 16.9466 35.6456 16.7131 35.8791C16.4796 36.1126 16.1642 36.2457 15.834 36.25H10.0007C9.22845 36.2456 8.48913 35.9369 7.94309 35.3909C7.39706 34.8449 7.08836 34.1055 7.08398 33.3333V15C7.08398 14.6685 7.21568 14.3505 7.4501 14.1161C7.68452 13.8817 8.00246 13.75 8.33398 13.75C8.66551 13.75 8.98345 13.8817 9.21787 14.1161C9.45229 14.3505 9.58398 14.6685 9.58398 15V33.3333C9.58398 33.4438 9.62788 33.5498 9.70602 33.628C9.78416 33.7061 9.89014 33.75 10.0007 33.75H14.584V25C14.5884 24.2278 14.8971 23.4885 15.4431 22.9424C15.9891 22.3964 16.7285 22.0877 17.5007 22.0833H22.5007C23.2729 22.0877 24.0122 22.3964 24.5582 22.9424C25.1042 23.4885 25.4129 24.2278 25.4173 25V33.75H30.0007C30.1112 33.75 30.2171 33.7061 30.2953 33.628C30.3734 33.5498 30.4173 33.4438 30.4173 33.3333V15C30.4173 14.6685 30.549 14.3505 30.7834 14.1161C31.0179 13.8817 31.3358 13.75 31.6673 13.75C31.9988 13.75 32.3168 13.8817 32.5512 14.1161C32.7856 14.3505 32.9173 14.6685 32.9173 15V33.3333C32.9129 34.1055 32.6042 34.8449 32.0582 35.3909C31.5122 35.9369 30.7729 36.2456 30.0007 36.25Z" fill="#82BF00"/>
<path d="M35.7672 15.6818L20.7672 4.0151H20.6838L20.4505 3.89844H20.2338H19.7672H19.5505L19.3172 4.0151H19.2338L4.23384 15.6818C4.10319 15.7813 3.99375 15.906 3.91193 16.0484C3.83012 16.1908 3.77757 16.3482 3.75739 16.5112C3.73721 16.6742 3.74979 16.8396 3.7944 16.9977C3.83901 17.1558 3.91475 17.3034 4.01717 17.4318C4.13361 17.5817 4.28268 17.7032 4.45306 17.7869C4.62344 17.8707 4.81066 17.9145 5.00051 17.9151C5.27883 17.9153 5.54903 17.8213 5.76717 17.6484L20.0005 6.6651L34.2338 17.7318C34.452 17.9046 34.7222 17.9986 35.0005 17.9984C35.1904 17.9978 35.3776 17.954 35.548 17.8703C35.7183 17.7865 35.8674 17.6651 35.9838 17.5151C36.0999 17.3849 36.1871 17.2315 36.2395 17.065C36.2919 16.8986 36.3085 16.723 36.288 16.5497C36.2675 16.3764 36.2105 16.2095 36.1207 16.0598C36.0309 15.9102 35.9104 15.7814 35.7672 15.6818Z" fill="#82BF00"/>
</svg>
