<svg width="40" height="40" viewBox="0 0 40 40" fill="none" xmlns="http://www.w3.org/2000/svg">
<path d="M25.933 13.9664C26.0968 13.7561 26.1902 13.4995 26.1997 13.2331C26.1979 12.9376 26.0886 12.653 25.8924 12.4322C25.6961 12.2113 25.4262 12.0695 25.133 12.0331L27.2997 6.66641C27.4265 6.35142 27.4731 6.00986 27.4353 5.6724C27.3975 5.33495 27.2764 5.01218 27.083 4.73307C26.901 4.45599 26.654 4.22761 26.3635 4.06784C26.073 3.90807 25.7478 3.82175 25.4163 3.81641H20.8163C20.3387 3.81575 19.8758 3.98192 19.5076 4.28621C19.1394 4.59051 18.889 5.01383 18.7997 5.48307H14.733C14.3954 5.49561 14.0662 5.59208 13.7752 5.76376C13.4842 5.93545 13.2406 6.17694 13.0663 6.46641C12.8907 6.74104 12.7826 7.05333 12.7507 7.37775C12.7188 7.70217 12.7642 8.02952 12.883 8.33307L14.7163 11.9831C14.5204 12.0311 14.3398 12.1278 14.1911 12.2641C14.0424 12.4005 13.9305 12.5721 13.8657 12.7631C13.8009 12.9542 13.7853 13.1585 13.8204 13.3571C13.8555 13.5558 13.9401 13.7424 14.0663 13.8997C11.894 16.046 10.1698 18.6024 8.99388 21.4207C7.81795 24.2389 7.21374 27.2627 7.21634 30.3164C7.19 31.3669 7.51273 32.3964 8.13399 33.2438C8.75525 34.0913 9.63997 34.7088 10.6497 34.9997C16.7593 36.7557 23.24 36.7557 29.3497 34.9997C30.3372 34.7149 31.2056 34.1174 31.8247 33.297C32.4437 32.4766 32.78 31.4775 32.783 30.4497C32.7945 27.3848 32.1945 24.3484 31.0184 21.5181C29.8422 18.6878 28.1133 16.1205 25.933 13.9664ZM18.7497 7.89974V8.33307C18.7497 8.6646 18.8814 8.98254 19.1158 9.21696C19.3502 9.45138 19.6681 9.58307 19.9997 9.58307C20.3312 9.58307 20.6491 9.45138 20.8836 9.21696C21.118 8.98254 21.2497 8.6646 21.2497 8.33307V6.24974H24.7497L22.4497 11.9831H17.4497L15.433 7.89974H18.7497ZM28.6663 32.5331C23.001 34.1451 16.9983 34.1451 11.333 32.5331C10.8572 32.4083 10.4359 32.1299 10.1346 31.7411C9.83318 31.3523 9.6686 30.875 9.66634 30.3831C9.66084 27.3461 10.3275 24.3455 11.6184 21.5966C12.9093 18.8476 14.7925 16.4184 17.133 14.4831H22.7663C25.1068 16.4184 26.99 18.8476 28.281 21.5966C29.5719 24.3455 30.2385 27.3461 30.233 30.3831C30.237 30.8621 30.0868 31.3297 29.8047 31.7168C29.5226 32.1039 29.1235 32.3901 28.6663 32.5331Z" fill="#82BF00"/>
</svg>
