<svg width="26" height="26" viewBox="0 0 26 26" fill="none" xmlns="http://www.w3.org/2000/svg">
<path d="M13 15.5238C12.7508 15.5245 12.5038 15.4761 12.2733 15.3813C12.0428 15.2865 11.8333 15.1471 11.6567 14.9713L3.315 6.62959C3.23517 6.55521 3.17114 6.46551 3.12673 6.36584C3.08233 6.26617 3.05845 6.15858 3.05652 6.04949C3.0546 5.9404 3.07467 5.83203 3.11553 5.73086C3.1564 5.62969 3.21722 5.53779 3.29437 5.46063C3.37153 5.38348 3.46343 5.32266 3.5646 5.28179C3.66577 5.24093 3.77413 5.22086 3.88323 5.22278C3.99232 5.22471 4.09991 5.24859 4.19958 5.29299C4.29925 5.3374 4.38895 5.40143 4.46333 5.48126L12.805 13.8229C12.8303 13.8491 12.8606 13.87 12.8941 13.8842C12.9276 13.8985 12.9636 13.9058 13 13.9058C13.0364 13.9058 13.0724 13.8985 13.1059 13.8842C13.1394 13.87 13.1697 13.8491 13.195 13.8229L21.5367 5.48126C21.6907 5.33774 21.8944 5.2596 22.1049 5.26332C22.3154 5.26703 22.5162 5.3523 22.6651 5.50117C22.814 5.65003 22.8992 5.85086 22.9029 6.06136C22.9067 6.27185 22.8285 6.47557 22.685 6.62959L14.3433 14.9713C14.1667 15.1471 13.9572 15.2865 13.7267 15.3813C13.4962 15.4761 13.2492 15.5245 13 15.5238Z" fill="#2D2D2D"/>
<path d="M21.6667 21.3952H4.33333C3.8314 21.3923 3.35084 21.1917 2.99592 20.8368C2.641 20.4818 2.44034 20.0013 2.4375 19.4993V6.49935C2.44034 5.99742 2.641 5.51686 2.99592 5.16193C3.35084 4.80701 3.8314 4.60636 4.33333 4.60352H21.6667C22.1686 4.60636 22.6492 4.80701 23.0041 5.16193C23.359 5.51686 23.5597 5.99742 23.5625 6.49935V19.4993C23.5597 20.0013 23.359 20.4818 23.0041 20.8368C22.6492 21.1917 22.1686 21.3923 21.6667 21.3952ZM4.33333 6.22852C4.2615 6.22852 4.19262 6.25705 4.14183 6.30784C4.09103 6.35863 4.0625 6.42752 4.0625 6.49935V19.4993C4.0625 19.5712 4.09103 19.6401 4.14183 19.6909C4.19262 19.7416 4.2615 19.7702 4.33333 19.7702H21.6667C21.7385 19.7702 21.8074 19.7416 21.8582 19.6909C21.909 19.6401 21.9375 19.5712 21.9375 19.4993V6.49935C21.9375 6.42752 21.909 6.35863 21.8582 6.30784C21.8074 6.25705 21.7385 6.22852 21.6667 6.22852H4.33333Z" fill="#2D2D2D"/>
</svg>
