<svg width="20" height="20" viewBox="0 0 20 20" fill="none" xmlns="http://www.w3.org/2000/svg">
<path d="M10.625 9.16669C10.625 8.82152 10.3452 8.54169 10 8.54169C9.65483 8.54169 9.375 8.82152 9.375 9.16669V14.1667C9.375 14.5119 9.65483 14.7917 10 14.7917C10.3452 14.7917 10.625 14.5119 10.625 14.1667V9.16669Z" fill="#2D2D2D"/>
<path fill-rule="evenodd" clip-rule="evenodd" d="M10 1.04169C5.05246 1.04169 1.04167 5.05247 1.04167 10C1.04167 14.9476 5.05246 18.9584 10 18.9584C14.9476 18.9584 18.9583 14.9476 18.9583 10C18.9583 5.05247 14.9476 1.04169 10 1.04169ZM2.29167 10C2.29167 5.74283 5.74281 2.29169 10 2.29169C14.2572 2.29169 17.7083 5.74283 17.7083 10C17.7083 14.2572 14.2572 17.7084 10 17.7084C5.74281 17.7084 2.29167 14.2572 2.29167 10Z" fill="#2D2D2D"/>
<path d="M10.8333 6.66671C10.8333 7.12694 10.4603 7.50004 10 7.50004C9.53976 7.50004 9.16667 7.12694 9.16667 6.66671C9.16667 6.20647 9.53976 5.83337 10 5.83337C10.4603 5.83337 10.8333 6.20647 10.8333 6.66671Z" fill="#2D2D2D"/>
</svg>
