<svg width="20" height="20" viewBox="0 0 20 20" fill="none" xmlns="http://www.w3.org/2000/svg">
<path d="M10.625 9.16602C10.625 8.82085 10.3452 8.54102 10 8.54102C9.65483 8.54102 9.375 8.82085 9.375 9.16602V14.166C9.375 14.5112 9.65483 14.791 10 14.791C10.3452 14.791 10.625 14.5112 10.625 14.166V9.16602Z" fill="#82BF00"/>
<path fill-rule="evenodd" clip-rule="evenodd" d="M10.0003 1.04102C5.05278 1.04102 1.04199 5.0518 1.04199 9.99935C1.04199 14.9469 5.05278 18.9577 10.0003 18.9577C14.9479 18.9577 18.9587 14.9469 18.9587 9.99935C18.9587 5.0518 14.9479 1.04102 10.0003 1.04102ZM2.29199 9.99935C2.29199 5.74216 5.74313 2.29102 10.0003 2.29102C14.2575 2.29102 17.7087 5.74216 17.7087 9.99935C17.7087 14.2565 14.2575 17.7077 10.0003 17.7077C5.74313 17.7077 2.29199 14.2565 2.29199 9.99935Z" fill="#82BF00"/>
<path d="M10.8337 6.66536C10.8337 7.1256 10.4606 7.4987 10.0003 7.4987C9.54008 7.4987 9.16699 7.1256 9.16699 6.66536C9.16699 6.20513 9.54008 5.83203 10.0003 5.83203C10.4606 5.83203 10.8337 6.20513 10.8337 6.66536Z" fill="#82BF00"/>
</svg>
