<svg width="22" height="20" viewBox="0 0 22 20" fill="none" xmlns="http://www.w3.org/2000/svg">
<path d="M20.4644 8.6022C19.8638 7.87839 18.9235 7.42877 18.0103 7.42877H15.5947C16.1383 6.56243 16.5474 5.69064 16.7968 4.86048C17.1773 3.59368 17.164 2.48938 16.7582 1.66696C16.3013 0.740637 15.3752 0.230469 14.1508 0.230469C13.8723 0.230469 13.6213 0.398476 13.5152 0.655945C12.5618 2.96839 10.075 6.29203 7.73206 8.4815C7.49298 7.65104 6.72681 7.04157 5.82047 7.04157H2.87711C1.78016 7.04157 0.887695 7.93404 0.887695 9.03094V17.7814C0.887695 18.8783 1.78016 19.7708 2.87711 19.7708H5.82047C6.49151 19.7708 7.08559 19.4364 7.4461 18.926C7.99146 19.4506 8.71445 19.7708 9.50667 19.7708H16.918C17.7373 19.7708 18.4669 19.4219 19.028 18.7619C19.4905 18.2178 19.819 17.4827 19.9779 16.6362L21.0703 10.8171C21.2169 10.0363 21.0017 9.24974 20.4644 8.6022ZM6.43483 17.7814C6.43483 18.1202 6.15923 18.3958 5.82047 18.3958H2.87711C2.53834 18.3958 2.2627 18.1202 2.2627 17.7814V9.03098C2.2627 8.69222 2.53834 8.41662 2.87711 8.41662H5.82047C6.15923 8.41662 6.43483 8.69222 6.43483 9.03098V17.7814ZM19.7189 10.5634L18.6265 16.3825C18.4438 17.3558 17.899 18.3958 16.9179 18.3958H9.50663C8.57102 18.3958 7.80988 17.5496 7.80988 16.5094V10.2471C10.4014 8.09573 13.3036 4.40089 14.5848 1.63929C15.2684 1.75496 15.4562 2.13553 15.5252 2.27527C15.9714 3.1798 15.6011 5.26254 13.7335 7.69788C13.5742 7.90555 13.5467 8.1857 13.6625 8.4204C13.7783 8.65509 14.0173 8.80372 14.2791 8.80372H18.0104C18.5174 8.80372 19.0653 9.06923 19.4062 9.48014C19.5982 9.71157 19.8083 10.0873 19.7189 10.5634Z" fill="#2D2D2D"/>
</svg>
