<svg width="26" height="26" viewBox="0 0 26 26" fill="none" xmlns="http://www.w3.org/2000/svg">
<path d="M13.0005 23.2158C12.2731 23.2162 11.5684 22.9634 11.0071 22.5008C9.33611 21.1024 7.96087 19.3847 6.96194 17.4483C5.96302 15.5118 5.36049 13.3955 5.18964 11.2233C5.10954 10.1486 5.25206 9.06901 5.60828 8.05195C5.96451 7.0349 6.52678 6.1023 7.25991 5.31249C7.99305 4.52267 8.88128 3.89264 9.86904 3.46181C10.8568 3.03097 11.9228 2.80859 13.0005 2.80859C14.0781 2.80859 15.1441 3.03097 16.1319 3.46181C17.1197 3.89264 18.0079 4.52267 18.741 5.31249C19.4742 6.1023 20.0364 7.0349 20.3927 8.05195C20.7489 9.06901 20.8914 10.1486 20.8113 11.2233C20.6385 13.3935 20.035 15.5075 19.0362 17.4419C18.0373 19.3764 16.6631 21.0924 14.9938 22.4899C14.4364 22.9606 13.73 23.2178 13.0005 23.2158ZM13.0005 4.40911C12.145 4.40969 11.2988 4.58679 10.5149 4.92933C9.73093 5.27187 9.02611 5.77248 8.44449 6.39986C7.86287 7.02723 7.41696 7.76788 7.13465 8.57546C6.85235 9.38304 6.73971 10.2402 6.8038 11.0933C6.96088 13.0484 7.50536 14.9528 8.40554 16.6955C9.30572 18.4382 10.5436 19.9844 12.0471 21.2441C12.3134 21.4701 12.6513 21.5941 13.0005 21.5941C13.3497 21.5941 13.6875 21.4701 13.9538 21.2441C15.4573 19.9844 16.6952 18.4382 17.5954 16.6955C18.4956 14.9528 19.0401 13.0484 19.1971 11.0933C19.2612 10.2402 19.1486 9.38304 18.8663 8.57546C18.584 7.76788 18.1381 7.02723 17.5565 6.39986C16.9748 5.77248 16.27 5.27187 15.4861 4.92933C14.7022 4.58679 13.856 4.40969 13.0005 4.40911Z" fill="#2D2D2D"/>
<path d="M13 15.2422C12.1965 15.2422 11.4111 15.0039 10.743 14.5575C10.0749 14.1111 9.55422 13.4767 9.24674 12.7343C8.93926 11.992 8.85881 11.1752 9.01556 10.3871C9.17231 9.59909 9.55923 8.87522 10.1274 8.30707C10.6955 7.73892 11.4194 7.352 12.2074 7.19525C12.9955 7.0385 13.8123 7.11895 14.5547 7.42643C15.297 7.73391 15.9315 8.25461 16.3778 8.92269C16.8242 9.59076 17.0625 10.3762 17.0625 11.1797C17.0625 12.2571 16.6345 13.2904 15.8726 14.0523C15.1108 14.8142 14.0774 15.2422 13 15.2422ZM13 8.74219C12.5179 8.74219 12.0466 8.88515 11.6458 9.15298C11.245 9.42082 10.9325 9.8015 10.748 10.2469C10.5636 10.6923 10.5153 11.1824 10.6093 11.6552C10.7034 12.1281 10.9355 12.5624 11.2764 12.9033C11.6173 13.2442 12.0516 13.4763 12.5245 13.5704C12.9973 13.6644 13.4874 13.6161 13.9328 13.4316C14.3782 13.2472 14.7589 12.9347 15.0267 12.5339C15.2945 12.133 15.4375 11.6618 15.4375 11.1797C15.4375 10.5332 15.1807 9.91324 14.7236 9.45612C14.2665 8.999 13.6465 8.74219 13 8.74219Z" fill="#2D2D2D"/>
</svg>
