<svg width="8" height="14" viewBox="0 0 8 14" fill="none" xmlns="http://www.w3.org/2000/svg">
<path fill-rule="evenodd" clip-rule="evenodd" d="M0.260325 13.7225C-0.0945277 13.3604 -0.0854678 12.7824 0.280562 12.4314L5.94462 7L0.280562 1.56859C-0.0854678 1.21759 -0.0945294 0.639561 0.260323 0.277509C0.615175 -0.0845399 1.19957 -0.0935016 1.5656 0.257498L7.56377 6.0093C7.69732 6.13276 7.80574 6.28195 7.8812 6.44913C7.95926 6.62203 8 6.8096 8 7C8 7.19038 7.95926 7.37795 7.8812 7.55085C7.80574 7.71803 7.69732 7.86722 7.56377 7.99068L1.5656 13.7425C1.19957 14.0934 0.615175 14.0846 0.260325 13.7225Z" fill="white"/>
</svg>
