<svg width="26" height="26" viewBox="0 0 26 26" fill="none" xmlns="http://www.w3.org/2000/svg">
<path d="M18.3298 24.3758C17.7714 24.3741 17.2189 24.2609 16.7048 24.0427C10.0709 21.2024 4.78645 15.9151 1.94983 9.27957C1.62911 8.53281 1.53974 7.70702 1.69327 6.90894C1.8468 6.11085 2.23618 5.37716 2.81108 4.8027L5.24858 2.3652C5.70561 1.90873 6.32514 1.65234 6.97108 1.65234C7.61702 1.65234 8.23654 1.90873 8.69358 2.3652L11.5617 5.23332C12.0182 5.69036 12.2746 6.30988 12.2746 6.95582C12.2746 7.60176 12.0182 8.22129 11.5617 8.67832L10.2373 10.0189C10.7497 11.3192 11.524 12.5002 12.5122 13.4884C13.5005 14.4766 14.6814 15.251 15.9817 15.7633L17.3467 14.4064C17.8037 13.95 18.4233 13.6936 19.0692 13.6936C19.7151 13.6936 20.3347 13.95 20.7917 14.4064L23.6598 17.2746C24.1163 17.7316 24.3727 18.3511 24.3727 18.9971C24.3727 19.643 24.1163 20.2625 23.6598 20.7196L21.2223 23.1571C20.8451 23.5419 20.3951 23.8478 19.8985 24.0571C19.4019 24.2663 18.8687 24.3747 18.3298 24.3758ZM7.00358 3.25082C6.89665 3.25021 6.79065 3.2707 6.69165 3.31113C6.59266 3.35157 6.50262 3.41115 6.4267 3.48645L3.9892 5.92395C3.64306 6.26853 3.40842 6.70915 3.3157 7.18868C3.22298 7.66822 3.27646 8.16455 3.4692 8.61332C6.12839 14.8792 11.1065 19.8747 17.363 22.5558C17.8117 22.7486 18.3081 22.802 18.7876 22.7093C19.2671 22.6166 19.7077 22.382 20.0523 22.0358L22.4898 19.5983C22.566 19.5228 22.6264 19.4329 22.6677 19.3339C22.7089 19.2349 22.7302 19.1287 22.7302 19.0214C22.7302 18.9142 22.7089 18.808 22.6677 18.709C22.6264 18.61 22.566 18.5201 22.4898 18.4446L19.6136 15.5764C19.4613 15.4251 19.2554 15.3402 19.0408 15.3402C18.8261 15.3402 18.6202 15.4251 18.468 15.5764L16.7455 17.2989C16.6404 17.402 16.5093 17.4746 16.3662 17.5089C16.2231 17.5432 16.0733 17.5381 15.933 17.4939C14.2074 16.9188 12.6395 15.9497 11.3533 14.6636C10.0672 13.3774 9.09814 11.8095 8.52295 10.0839C8.47883 9.94355 8.47366 9.79381 8.508 9.65071C8.54235 9.50761 8.61491 9.37652 8.71795 9.27145L10.4405 7.54895C10.5158 7.47303 10.5753 7.38299 10.6158 7.284C10.6562 7.185 10.6767 7.079 10.6761 6.97207C10.6752 6.75892 10.5906 6.55466 10.4405 6.40332L7.58045 3.48645C7.50453 3.41115 7.41449 3.35157 7.3155 3.31113C7.21651 3.2707 7.11051 3.25021 7.00358 3.25082Z" fill="black"/>
</svg>
