<svg width="18" height="18" viewBox="0 0 18 18" fill="none" xmlns="http://www.w3.org/2000/svg">
<path d="M8.99935 17.9269H8.79768C6.64021 17.6508 4.65694 16.5991 3.21809 14.9679C1.77925 13.3368 0.983189 11.2378 0.978516 9.0627V3.49854C0.979702 3.34501 1.03157 3.19618 1.12606 3.07517C1.22054 2.95416 1.35236 2.86775 1.50102 2.82937L3.44435 2.34354C4.54075 2.06781 5.60414 1.67442 6.61601 1.17021L8.69685 0.134372C8.78992 0.0846216 8.89382 0.0585938 8.99935 0.0585938C9.10488 0.0585938 9.20878 0.0846216 9.30185 0.134372L11.3827 1.17021C12.3946 1.67442 13.4579 2.06781 14.5543 2.34354L16.4977 2.82937C16.6463 2.86775 16.7782 2.95416 16.8726 3.07517C16.9671 3.19618 17.019 3.34501 17.0202 3.49854V9.05354C17.0155 11.2286 16.2194 13.3276 14.7806 14.9587C13.3418 16.5899 11.3585 17.6417 9.20102 17.9177L8.99935 17.9269ZM2.35352 4.03937V9.05354C2.35557 10.899 3.03239 12.6801 4.25648 14.0612C5.48058 15.4423 7.16745 16.3282 8.99935 16.5519C10.8362 16.3344 12.5297 15.4512 13.7594 14.0695C14.9891 12.6878 15.6698 10.9032 15.6727 9.05354V4.03937L14.2243 3.68187C13.0298 3.37902 11.8712 2.94878 10.7685 2.39854L8.99935 1.51854L7.23018 2.43521C6.126 2.97284 4.96746 3.39077 3.77435 3.68187L2.35352 4.03937Z" fill="#2D2D2D"/>
<path d="M8.2383 11.5199C8.05602 11.5197 7.88127 11.4472 7.75247 11.3182L5.4608 8.99905C5.39594 8.93585 5.34439 8.8603 5.30919 8.77686C5.27399 8.69342 5.25586 8.60378 5.25586 8.51322C5.25586 8.42266 5.27399 8.33301 5.30919 8.24957C5.34439 8.16613 5.39594 8.09058 5.4608 8.02738C5.52817 7.96711 5.60677 7.92072 5.69209 7.89086C5.77741 7.861 5.86779 7.84826 5.95804 7.85337C6.04829 7.85848 6.13665 7.88133 6.21806 7.92063C6.29947 7.95993 6.37233 8.0149 6.43246 8.08239L8.19247 9.84239L11.5291 5.83655C11.6452 5.69764 11.8113 5.6101 11.9915 5.59294C12.1717 5.57578 12.3514 5.63038 12.4916 5.74488C12.6311 5.86256 12.7189 6.03028 12.736 6.21198C12.7532 6.39369 12.6983 6.57486 12.5833 6.71655L8.7608 11.2999C8.69994 11.3732 8.62452 11.433 8.5393 11.4756C8.45409 11.5182 8.36095 11.5427 8.2658 11.5474L8.2383 11.5199Z" fill="#2D2D2D"/>
</svg>
