<svg width="8" height="8" viewBox="0 0 8 8" fill="none" xmlns="http://www.w3.org/2000/svg">
<g clip-path="url(#clip0_2122_1441)">
<path d="M7.35247 2.05985C7.34836 1.84387 7.34444 1.63982 7.34444 1.44243C7.34444 1.28778 7.21911 1.16241 7.06442 1.16241C5.86687 1.16241 4.95508 0.818243 4.19507 0.0792878C4.08635 -0.0264479 3.91333 -0.0264106 3.80465 0.0792878C3.04471 0.818243 2.13307 1.16241 0.935595 1.16241C0.780949 1.16241 0.655574 1.28778 0.655574 1.44243C0.655574 1.63986 0.651691 1.84398 0.647547 2.06C0.609166 4.07003 0.556597 6.82285 3.90814 7.98457C3.93786 7.99487 3.96885 8.00002 3.99984 8.00002C4.03083 8.00002 4.06186 7.99487 4.09154 7.98457C7.44335 6.82282 7.39085 4.06992 7.35247 2.05985ZM3.99988 7.42284C1.12549 6.37867 1.16895 4.09127 1.20751 2.07068C1.20983 1.94941 1.21207 1.83188 1.21364 1.71666C2.33521 1.66932 3.2321 1.32945 3.99988 0.66061C4.76773 1.32945 5.66477 1.66936 6.78642 1.71666C6.78799 1.83184 6.79023 1.9493 6.79254 2.0705C6.83107 4.09116 6.87449 6.37863 3.99988 7.42284Z" fill="white"/>
<path d="M4.96412 3.02731L3.6126 4.37877L3.03587 3.80204C2.92651 3.69272 2.7492 3.69272 2.63988 3.80204C2.53052 3.91143 2.53052 4.0887 2.63988 4.19806L3.4146 4.97278C3.46926 5.02744 3.54095 5.05477 3.6126 5.05477C3.68424 5.05477 3.75593 5.02744 3.81059 4.97278L5.36007 3.42334C5.46947 3.31398 5.46947 3.13667 5.36011 3.02735C5.25079 2.91799 5.07348 2.91795 4.96412 3.02731Z" fill="white"/>
</g>
<defs>
<clipPath id="clip0_2122_1441">
<rect width="8" height="8" fill="white"/>
</clipPath>
</defs>
</svg>
