<svg width="33" height="33" viewBox="0 0 33 33" fill="none" xmlns="http://www.w3.org/2000/svg">
<g clip-path="url(#clip0_2122_4591)">
<path d="M23.1238 11.6916L14.7557 18.5316L14.362 18.8541C14.2755 18.9227 14.219 19.0222 14.2045 19.1316L14.1163 19.8591L13.8745 21.9028C13.8767 21.9277 13.869 21.9524 13.853 21.9716C13.837 21.9908 13.814 22.0028 13.7891 22.005C13.7643 22.0073 13.7395 21.9995 13.7204 21.9835C13.7012 21.9675 13.6892 21.9446 13.687 21.9197L13.0063 19.876L12.3032 17.7853C12.2732 17.6917 12.277 17.5904 12.3141 17.4993C12.3511 17.4081 12.4189 17.3329 12.5057 17.2866L21.2132 12.2953L22.852 11.3578C23.0901 11.2191 23.3338 11.5191 23.1238 11.6916Z" fill="white"/>
<path d="M16.5 0C13.2366 0 10.0465 0.967708 7.3331 2.78075C4.61969 4.5938 2.50484 7.17074 1.256 10.1857C0.00714925 13.2007 -0.319606 16.5183 0.31705 19.719C0.953706 22.9197 2.52518 25.8597 4.83275 28.1673C7.14031 30.4748 10.0803 32.0463 13.281 32.683C16.4817 33.3196 19.7993 32.9929 22.8143 31.744C25.8293 30.4952 28.4062 28.3803 30.2193 25.6669C32.0323 22.9535 33 19.7634 33 16.5C33 12.1239 31.2616 7.92709 28.1673 4.83274C25.0729 1.73839 20.8761 0 16.5 0ZM26.7919 9.55125L23.5706 23.7844C23.4188 24.4519 22.5713 24.7538 21.9769 24.3469L17.1131 21.0469L14.6363 23.3888C14.5353 23.4835 14.4127 23.5522 14.2791 23.5889C14.1455 23.6255 14.0051 23.6291 13.8698 23.5991C13.7346 23.5692 13.6087 23.5067 13.5031 23.4171C13.3975 23.3275 13.3153 23.2135 13.2638 23.085L12.3694 20.46L11.475 17.835L6.68063 16.5225C6.54658 16.4932 6.42596 16.4205 6.33751 16.3156C6.24906 16.2107 6.19775 16.0795 6.19155 15.9425C6.18535 15.8054 6.2246 15.6701 6.30322 15.5577C6.38183 15.4452 6.4954 15.3619 6.62626 15.3206L25.1475 8.6475L25.4888 8.52563C26.2069 8.27438 26.9494 8.85563 26.7919 9.55125Z" fill="white"/>
</g>
<defs>
<clipPath id="clip0_2122_4591">
<rect width="33" height="33" fill="white"/>
</clipPath>
</defs>
</svg>
