<svg width="20" height="20" viewBox="0 0 20 20" fill="none" xmlns="http://www.w3.org/2000/svg">
<path d="M10 0C4.47715 0 0 4.47715 0 10C0 15.5229 4.47715 20 10 20C15.5229 20 20 15.5229 20 10C20 4.47715 15.5229 0 10 0ZM15.3267 13.3945H14.0577C13.9203 13.3947 13.7846 13.3639 13.6607 13.3043C13.5368 13.2448 13.428 13.1582 13.3422 13.0508C12.9616 12.573 12.212 11.7259 11.4248 11.362C11.3792 11.3407 11.329 11.3311 11.2787 11.3344C11.2285 11.3376 11.1799 11.3534 11.1374 11.3804C11.0949 11.4073 11.0599 11.4446 11.0356 11.4887C11.0113 11.5328 10.9985 11.5823 10.9984 11.6326V12.8876C10.9984 12.9542 10.9853 13.0201 10.9599 13.0816C10.9344 13.1431 10.8971 13.199 10.85 13.2461C10.8029 13.2931 10.7471 13.3305 10.6856 13.3559C10.6241 13.3814 10.5582 13.3945 10.4916 13.3945H9.90484C9.1418 13.3945 7.49859 12.93 6.18926 11.0227C5.07363 9.3977 4.57633 8.13832 4.28633 7.11723C4.26947 7.05738 4.26671 6.99444 4.27826 6.93335C4.28982 6.87226 4.31538 6.81467 4.35293 6.76512C4.39048 6.71556 4.43901 6.67539 4.4947 6.64774C4.55039 6.6201 4.61173 6.60573 4.67391 6.60578H5.95758C6.08565 6.60567 6.21033 6.6469 6.31308 6.72334C6.41584 6.79978 6.49118 6.90735 6.52789 7.03004C6.7666 7.82844 7.38488 9.55074 8.47777 10.4084C8.5111 10.4347 8.55114 10.451 8.59332 10.4556C8.6355 10.4602 8.67813 10.4528 8.71631 10.4343C8.7545 10.4158 8.78671 10.3869 8.80926 10.351C8.83181 10.315 8.84379 10.2735 8.84383 10.2311V8.22066C8.84383 7.82336 8.67164 7.42586 8.40289 7.1152C8.36416 7.07064 8.33907 7.01588 8.3306 6.95746C8.32214 6.89904 8.33065 6.83941 8.35513 6.78569C8.37962 6.73198 8.41903 6.68644 8.46868 6.6545C8.51833 6.62257 8.57612 6.60559 8.63516 6.60559H10.6143C10.7162 6.60559 10.814 6.64607 10.886 6.71813C10.9581 6.79019 10.9986 6.88793 10.9986 6.98984V9.69785C10.9986 9.73705 11.0094 9.7755 11.0298 9.80897C11.0502 9.84245 11.0794 9.86966 11.1142 9.88764C11.1491 9.90561 11.1882 9.91365 11.2273 9.91088C11.2664 9.90811 11.304 9.89463 11.3359 9.87191C11.6992 9.61332 12.0104 9.23129 12.2965 8.80188C12.6567 8.26172 13.0962 7.36883 13.3166 6.90543C13.3593 6.81566 13.4266 6.73983 13.5106 6.68674C13.5946 6.63364 13.692 6.60546 13.7914 6.60547H15.1914C15.2499 6.60544 15.3074 6.62035 15.3584 6.64877C15.4095 6.67719 15.4525 6.71819 15.4833 6.76788C15.5141 6.81756 15.5317 6.8743 15.5345 6.93269C15.5372 6.99109 15.525 7.04921 15.4989 7.10156C15.1457 7.81016 14.4576 9.11008 13.8101 9.87273C13.7174 9.98241 13.672 10.1244 13.6839 10.2675C13.6958 10.4106 13.764 10.5431 13.8735 10.636C14.2955 10.9966 14.9545 11.6634 15.6648 12.7739C15.704 12.8347 15.7261 12.9049 15.7288 12.9771C15.7315 13.0494 15.7146 13.1211 15.68 13.1846C15.6454 13.2481 15.5943 13.3011 15.5322 13.338C15.47 13.375 15.399 13.3945 15.3267 13.3945Z" fill="#606060"/>
</svg>
