<svg width="33" height="33" viewBox="0 0 33 33" fill="none" xmlns="http://www.w3.org/2000/svg">
<g clip-path="url(#clip0_2122_4597)">
<path d="M16.5 0C13.2366 0 10.0465 0.967708 7.3331 2.78075C4.61969 4.5938 2.50484 7.17074 1.256 10.1857C0.00714925 13.2007 -0.319606 16.5183 0.31705 19.719C0.953706 22.9197 2.52518 25.8597 4.83275 28.1673C7.14031 30.4748 10.0803 32.0463 13.281 32.683C16.4817 33.3196 19.7993 32.9929 22.8143 31.744C25.8293 30.4952 28.4062 28.3803 30.2193 25.6669C32.0323 22.9535 33 19.7634 33 16.5C33 12.1239 31.2616 7.92709 28.1673 4.83274C25.0729 1.73839 20.8761 0 16.5 0ZM26.01 22.9575C25.53 23.025 23.1825 22.9575 23.0606 22.9575C22.4538 22.9655 21.8683 22.7337 21.4313 22.3125C20.9363 21.8344 20.4938 21.3094 20.01 20.8125C19.8675 20.66 19.7126 20.5195 19.5469 20.3925C19.1606 20.0963 18.7781 20.1619 18.5963 20.6194C18.4543 21.1118 18.3551 21.6155 18.3 22.125C18.2681 22.5863 17.9756 22.875 17.4581 22.9069C17.1375 22.9238 16.8169 22.9313 16.5 22.9219C15.3451 22.9156 14.2082 22.6347 13.1831 22.1025C12.0737 21.4849 11.1071 20.6403 10.3463 19.6238C9.09563 18.0263 8.09626 16.2713 7.20376 14.4619C7.15688 14.37 6.24188 12.4238 6.21938 12.3319C6.13688 12.0263 6.21938 11.7319 6.47251 11.6288C6.63376 11.5669 9.64876 11.6288 9.69938 11.6288C9.92369 11.6272 10.1427 11.6971 10.3247 11.8282C10.5067 11.9593 10.6423 12.1449 10.7119 12.3581C11.2697 13.785 12.0328 15.1228 12.9769 16.3294C13.1091 16.4901 13.2639 16.6309 13.4363 16.7475C13.6819 16.9163 13.9144 16.8581 14.0156 16.5731C14.1358 16.1803 14.2063 15.7741 14.2256 15.3638C14.2425 14.55 14.2256 14.0156 14.1806 13.2019C14.1506 12.6806 13.9669 12.225 13.1981 12.0769C12.9619 12.0338 12.9413 11.8388 13.0931 11.6438C13.41 11.2406 13.8431 11.175 14.3288 11.1506C15.0525 11.1094 15.7763 11.1375 16.5 11.1506H16.6575C16.9725 11.1495 17.2867 11.1815 17.595 11.2463C17.7774 11.2835 17.9429 11.3786 18.0669 11.5174C18.1909 11.6563 18.2667 11.8315 18.2831 12.0169C18.3204 12.2222 18.3361 12.4308 18.33 12.6394C18.3113 13.5263 18.2681 14.415 18.2588 15.3019C18.25 15.6538 18.2821 16.0055 18.3544 16.35C18.4575 16.8225 18.7819 16.9406 19.1044 16.5994C19.5223 16.1592 19.9054 15.6872 20.25 15.1875C20.8608 14.2768 21.3642 13.2984 21.75 12.2719C21.96 11.745 22.125 11.6288 22.6875 11.6288H25.8863C26.0765 11.6254 26.2661 11.6507 26.4488 11.7038C26.5134 11.7207 26.5739 11.7509 26.6263 11.7923C26.6788 11.8338 26.7221 11.8856 26.7536 11.9446C26.7852 12.0035 26.8042 12.0684 26.8094 12.135C26.8147 12.2017 26.8062 12.2687 26.7844 12.3319C26.6269 13.0331 26.2481 13.6313 25.8469 14.2069C25.1963 15.1275 24.51 16.0256 23.8444 16.935C23.7643 17.0526 23.6911 17.1746 23.625 17.3006C23.3738 17.7544 23.3925 18.0075 23.7563 18.3825C24.3375 18.9806 24.9581 19.5394 25.5188 20.1544C25.93 20.6018 26.3014 21.0843 26.6288 21.5963C27.0281 22.2413 26.775 22.8488 26.01 22.9575Z" fill="white"/>
</g>
<defs>
<clipPath id="clip0_2122_4597">
<rect width="33" height="33" fill="white"/>
</clipPath>
</defs>
</svg>
