<svg width="40" height="40" viewBox="0 0 40 40" fill="none" xmlns="http://www.w3.org/2000/svg">
<path d="M23.3327 20.418H16.666C16.3345 20.418 16.0166 20.5497 15.7821 20.7841C15.5477 21.0185 15.416 21.3364 15.416 21.668C15.416 21.9995 15.5477 22.3174 15.7821 22.5519C16.0166 22.7863 16.3345 22.918 16.666 22.918H23.3327C23.6642 22.918 23.9821 22.7863 24.2166 22.5519C24.451 22.3174 24.5827 21.9995 24.5827 21.668C24.5827 21.3364 24.451 21.0185 24.2166 20.7841C23.9821 20.5497 23.6642 20.418 23.3327 20.418Z" fill="#82BF00"/>
<path d="M28.3327 23.3333C29.2532 23.3333 29.9993 22.5871 29.9993 21.6667C29.9993 20.7462 29.2532 20 28.3327 20C27.4122 20 26.666 20.7462 26.666 21.6667C26.666 22.5871 27.4122 23.3333 28.3327 23.3333Z" fill="#82BF00"/>
<path d="M11.6667 23.3333C12.5871 23.3333 13.3333 22.5871 13.3333 21.6667C13.3333 20.7462 12.5871 20 11.6667 20C10.7462 20 10 20.7462 10 21.6667C10 22.5871 10.7462 23.3333 11.6667 23.3333Z" fill="#82BF00"/>
<path d="M34.5827 15.8346C34.5784 15.5045 34.4453 15.189 34.2118 14.9555C33.9783 14.722 33.6629 14.589 33.3327 14.5846H32.8493L31.4993 7.76797C31.3651 7.10614 31.0065 6.51091 30.4843 6.08278C29.962 5.65465 29.308 5.41983 28.6327 5.41797H11.366C10.6907 5.41983 10.0367 5.65465 9.51445 6.08278C8.99219 6.51091 8.63364 7.10614 8.49935 7.76797L7.14935 14.5846H6.66602C6.33584 14.589 6.0204 14.722 5.78691 14.9555C5.55342 15.189 5.42033 15.5045 5.41602 15.8346C5.41794 16.0525 5.47757 16.266 5.58881 16.4534C5.70006 16.6408 5.85897 16.7953 6.04935 16.9013C5.63477 17.5847 5.4157 18.3687 5.41602 19.168V24.168C5.41543 24.8387 5.56478 25.5011 5.85314 26.1066C6.14151 26.7122 6.5616 27.2457 7.08268 27.668V30.0013C7.08268 30.9959 7.47777 31.9497 8.18103 32.653C8.8843 33.3562 9.83812 33.7513 10.8327 33.7513C11.8272 33.7513 12.7811 33.3562 13.4843 32.653C14.1876 31.9497 14.5827 30.9959 14.5827 30.0013V28.7346H25.416V30.0013C25.416 30.9959 25.8111 31.9497 26.5144 32.653C27.2176 33.3562 28.1715 33.7513 29.166 33.7513C30.1606 33.7513 31.1144 33.3562 31.8177 32.653C32.5209 31.9497 32.916 30.9959 32.916 30.0013V27.668C33.4371 27.2457 33.8572 26.7122 34.1456 26.1066C34.4339 25.5011 34.5833 24.8387 34.5827 24.168V19.168C34.583 18.3687 34.3639 17.5847 33.9494 16.9013C34.1397 16.7953 34.2986 16.6408 34.4099 16.4534C34.5211 16.266 34.5808 16.0525 34.5827 15.8346ZM32.0827 19.168V24.168C32.0827 24.7205 31.8632 25.2504 31.4725 25.6411C31.0818 26.0318 30.5519 26.2513 29.9993 26.2513H9.99935C9.44682 26.2513 8.91691 26.0318 8.52621 25.6411C8.13551 25.2504 7.91602 24.7205 7.91602 24.168V19.168C7.91602 18.6154 8.13551 18.0855 8.52621 17.6948C8.91691 17.3041 9.44682 17.0846 9.99935 17.0846H29.9993C30.5519 17.0846 31.0818 17.3041 31.4725 17.6948C31.8632 18.0855 32.0827 18.6154 32.0827 19.168ZM10.9494 8.33464C10.9717 8.24055 11.0248 8.15663 11.1003 8.09623C11.1758 8.03583 11.2693 8.00241 11.366 8.0013H28.6327C28.7294 8.00241 28.8229 8.03583 28.8984 8.09623C28.9739 8.15663 29.027 8.24055 29.0494 8.33464L30.316 14.668H9.68268L10.9494 8.33464ZM12.0827 30.0013C12.0827 30.3328 11.951 30.6508 11.7166 30.8852C11.4821 31.1196 11.1642 31.2513 10.8327 31.2513C10.5012 31.2513 10.1832 31.1196 9.9488 30.8852C9.71438 30.6508 9.58268 30.3328 9.58268 30.0013V28.6846C9.72142 28.6938 9.86061 28.6938 9.99935 28.6846H12.0827V30.0013ZM30.416 30.0013C30.416 30.3328 30.2843 30.6508 30.0499 30.8852C29.8155 31.1196 29.4975 31.2513 29.166 31.2513C28.8345 31.2513 28.5166 31.1196 28.2821 30.8852C28.0477 30.6508 27.916 30.3328 27.916 30.0013V28.7346H29.9993C30.1381 28.7438 30.2773 28.7438 30.416 28.7346V30.0013Z" fill="#82BF00"/>
</svg>
