<svg width="40" height="40" viewBox="0 0 40 40" fill="none" xmlns="http://www.w3.org/2000/svg">
<path d="M35 26.2487C34.6698 26.2444 34.3544 26.1113 34.1209 25.8778C33.8874 25.6443 33.7543 25.3289 33.75 24.9987V15.832C33.75 15.5005 33.8817 15.1826 34.1161 14.9481C34.3505 14.7137 34.6685 14.582 35 14.582C35.3315 14.582 35.6495 14.7137 35.8839 14.9481C36.1183 15.1826 36.25 15.5005 36.25 15.832V24.9987C36.2457 25.3289 36.1126 25.6443 35.8791 25.8778C35.6456 26.1113 35.3302 26.2444 35 26.2487Z" fill="#82BF00"/>
<path d="M34.8494 13.3314L21.3994 5.83145C20.9711 5.59358 20.4893 5.46875 19.9994 5.46875C19.5095 5.46875 19.0277 5.59358 18.5994 5.83145L5.14941 13.3314C4.69822 13.5739 4.32168 13.9348 4.06032 14.3753C3.79895 14.8158 3.66265 15.3192 3.66608 15.8314C3.66625 16.3429 3.80406 16.8449 4.06504 17.2848C4.32603 17.7247 4.70059 18.0862 5.14941 18.3314L7.94941 19.8981C7.94161 19.9478 7.94161 19.9984 7.94941 20.0481V29.0648C7.94808 29.5671 8.07431 30.0615 8.31626 30.5017C8.55822 30.9418 8.90797 31.3134 9.33275 31.5814C12.5492 33.5652 16.2538 34.6157 20.0327 34.6157C23.8117 34.6157 27.5163 33.5652 30.7327 31.5814C31.1575 31.3134 31.5073 30.9418 31.7492 30.5017C31.9912 30.0615 32.1174 29.5671 32.1161 29.0648V19.9981C32.1239 19.9484 32.1239 19.8978 32.1161 19.8481L34.8494 18.3314C35.2982 18.0862 35.6728 17.7247 35.9338 17.2848C36.1948 16.8449 36.3326 16.3429 36.3327 15.8314C36.3362 15.3192 36.1999 14.8158 35.9385 14.3753C35.6771 13.9348 35.3006 13.5739 34.8494 13.3314ZM29.5827 29.0648C29.5877 29.139 29.5734 29.2133 29.5413 29.2805C29.5092 29.3476 29.4603 29.4053 29.3994 29.4481C26.576 31.1971 23.3206 32.1237 19.9994 32.1237C16.6782 32.1237 13.4228 31.1971 10.5994 29.4481C10.5385 29.4053 10.4896 29.3476 10.4575 29.2805C10.4254 29.2133 10.4111 29.139 10.4161 29.0648V21.2314L18.5994 25.7981C19.0301 26.0286 19.511 26.1492 19.9994 26.1492C20.4879 26.1492 20.9688 26.0286 21.3994 25.7981L29.5827 21.2314V29.0648ZM33.6327 16.1481L20.1827 23.6648C20.1248 23.6895 20.0624 23.7023 19.9994 23.7023C19.9364 23.7023 19.874 23.6895 19.8161 23.6648L6.36608 16.0981C6.30617 16.0697 6.25556 16.0248 6.22016 15.9688C6.18475 15.9127 6.166 15.8478 6.16608 15.7814C6.16386 15.7147 6.18174 15.6488 6.2174 15.5924C6.25306 15.5359 6.30486 15.4915 6.36608 15.4648L19.8161 7.96478C19.8718 7.9326 19.935 7.91566 19.9994 7.91566C20.0638 7.91566 20.127 7.9326 20.1827 7.96478L33.6327 15.4648C33.694 15.4915 33.7458 15.5359 33.7814 15.5924C33.8171 15.6488 33.835 15.7147 33.8327 15.7814C33.8328 15.8478 33.8141 15.9127 33.7787 15.9688C33.7433 16.0248 33.6927 16.0697 33.6327 16.0981V16.1481Z" fill="#82BF00"/>
</svg>
