<svg width="40" height="40" viewBox="0 0 40 40" fill="none" xmlns="http://www.w3.org/2000/svg">
<path d="M33.332 34.5833C33.0019 34.579 32.6864 34.4459 32.4529 34.2124C32.2194 33.979 32.0863 33.6635 32.082 33.3333V30C32.082 29.6685 32.2137 29.3505 32.4481 29.1161C32.6826 28.8817 33.0005 28.75 33.332 28.75C33.6636 28.75 33.9815 28.8817 34.2159 29.1161C34.4503 29.3505 34.582 29.6685 34.582 30V33.3333C34.5777 33.6635 34.4446 33.979 34.2111 34.2124C33.9776 34.4459 33.6622 34.579 33.332 34.5833Z" fill="#82BF00"/>
<path d="M18.332 34.5833C18.0019 34.579 17.6864 34.4459 17.4529 34.2124C17.2194 33.979 17.0863 33.6635 17.082 33.3333V30C17.082 29.6685 17.2137 29.3505 17.4481 29.1161C17.6826 28.8817 18.0005 28.75 18.332 28.75C18.6636 28.75 18.9815 28.8817 19.2159 29.1161C19.4503 29.3505 19.582 29.6685 19.582 30V33.3333C19.5777 33.6635 19.4446 33.979 19.2111 34.2124C18.9776 34.4459 18.6622 34.579 18.332 34.5833Z" fill="#82BF00"/>
<path d="M12.5 32.082H11.25V13.332C11.25 13.0005 11.1183 12.6826 10.8839 12.4481C10.6495 12.2137 10.3315 12.082 10 12.082C9.66848 12.082 9.35054 12.2137 9.11612 12.4481C8.8817 12.6826 8.75 13.0005 8.75 13.332V32.082H7.5C7.16848 32.082 6.85054 32.2137 6.61612 32.4481C6.3817 32.6826 6.25 33.0005 6.25 33.332C6.25 33.6636 6.3817 33.9815 6.61612 34.2159C6.85054 34.4503 7.16848 34.582 7.5 34.582H12.5C12.8315 34.582 13.1495 34.4503 13.3839 34.2159C13.6183 33.9815 13.75 33.6636 13.75 33.332C13.75 33.0005 13.6183 32.6826 13.3839 32.4481C13.1495 32.2137 12.8315 32.082 12.5 32.082Z" fill="#82BF00"/>
<path d="M13.9325 14.582H6.06584C5.74562 14.5834 5.42924 14.5122 5.14055 14.3736C4.85186 14.235 4.59837 14.0328 4.39918 13.782C4.20991 13.5305 4.08009 13.2394 4.01947 12.9305C3.95885 12.6217 3.96901 12.3031 4.04918 11.9987L5.29918 6.9987C5.39434 6.53231 5.64635 6.11257 6.01327 5.80933C6.38018 5.5061 6.83987 5.33765 7.31584 5.33203H12.6825C13.1585 5.33765 13.6182 5.5061 13.9851 5.80933C14.352 6.11257 14.604 6.53231 14.6992 6.9987L15.9492 11.9987C16.027 12.3043 16.0345 12.6236 15.971 12.9325C15.9074 13.2415 15.7746 13.5319 15.5825 13.782C15.3851 14.0306 15.1343 14.2315 14.8486 14.37C14.563 14.5085 14.2499 14.5809 13.9325 14.582ZM6.66584 12.082H13.3325L12.2825 7.91536H7.64918L6.66584 12.082Z" fill="#82BF00"/>
<path d="M34.5827 21.0487V16.6654C34.5827 15.4498 34.0998 14.284 33.2403 13.4245C32.3807 12.5649 31.2149 12.082 29.9993 12.082H21.666C20.4504 12.082 19.2847 12.5649 18.4251 13.4245C17.5656 14.284 17.0827 15.4498 17.0827 16.6654V21.0487C16.5704 21.3875 16.15 21.8479 15.8591 22.3889C15.5683 22.9299 15.416 23.5345 15.416 24.1487V28.332C15.4204 29.1042 15.7291 29.8436 16.2751 30.3896C16.8212 30.9356 17.5605 31.2443 18.3327 31.2487H33.3327C34.1049 31.2443 34.8442 30.9356 35.3902 30.3896C35.9363 29.8436 36.245 29.1042 36.2493 28.332V24.1487C36.2478 23.5348 36.095 22.9307 35.8043 22.39C35.5135 21.8492 35.094 21.3885 34.5827 21.0487ZM21.666 14.582H29.9993C30.5519 14.582 31.0818 14.8015 31.4725 15.1922C31.8632 15.5829 32.0827 16.1128 32.0827 16.6654V20.4487C31.2296 20.5392 30.4334 20.9195 29.8268 21.5261C29.2202 22.1327 28.8399 22.929 28.7493 23.782H22.8993C22.8118 22.9278 22.4325 22.1299 21.8253 21.5227C21.2181 20.9155 20.4202 20.5362 19.566 20.4487V16.6654C19.566 16.3904 19.6204 16.1181 19.7262 15.8642C19.8319 15.6104 19.9869 15.38 20.1821 15.1863C20.3773 14.9926 20.609 14.8395 20.8636 14.7358C21.1183 14.6321 21.391 14.5798 21.666 14.582ZM33.7493 28.332C33.7493 28.4425 33.7055 28.5485 33.6273 28.6267C33.5492 28.7048 33.4432 28.7487 33.3327 28.7487H18.3327C18.2222 28.7487 18.1162 28.7048 18.0381 28.6267C17.9599 28.5485 17.916 28.4425 17.916 28.332V24.1487C17.916 23.8172 18.0477 23.4992 18.2821 23.2648C18.5166 23.0304 18.8345 22.8987 19.166 22.8987C19.4975 22.8987 19.8155 23.0304 20.0499 23.2648C20.2843 23.4992 20.416 23.8172 20.416 24.1487C20.4204 24.7043 20.643 25.2359 21.0359 25.6288C21.4288 26.0217 21.9604 26.2443 22.516 26.2487H29.1827C29.7383 26.2443 30.2699 26.0217 30.6628 25.6288C31.0557 25.2359 31.2783 24.7043 31.2827 24.1487C31.2827 23.8172 31.4144 23.4992 31.6488 23.2648C31.8832 23.0304 32.2012 22.8987 32.5327 22.8987C32.8642 22.8987 33.1821 23.0304 33.4166 23.2648C33.651 23.4992 33.7827 23.8172 33.7827 24.1487L33.7493 28.332Z" fill="#82BF00"/>
</svg>
