<svg width="40" height="40" viewBox="0 0 40 40" fill="none" xmlns="http://www.w3.org/2000/svg">
<path d="M15.5669 16.6642L14.2169 16.4642L13.6169 15.1975C13.5964 15.1387 13.5581 15.0877 13.5073 15.0516C13.4566 15.0155 13.3958 14.9961 13.3335 14.9961C13.2712 14.9961 13.2105 15.0155 13.1597 15.0516C13.1089 15.0877 13.0707 15.1387 13.0502 15.1975L12.4502 16.4642L11.1002 16.6642C11.0424 16.6724 10.9881 16.6964 10.9431 16.7335C10.8981 16.7707 10.8643 16.8196 10.8453 16.8747C10.8264 16.9299 10.823 16.9892 10.8356 17.0462C10.8482 17.1031 10.8764 17.1555 10.9169 17.1975L11.9169 18.2308L11.6669 19.6475C11.656 19.7067 11.6622 19.7677 11.6847 19.8235C11.7073 19.8793 11.7453 19.9275 11.7942 19.9625C11.8432 19.9975 11.9011 20.0178 11.9612 20.021C12.0213 20.0243 12.0811 20.0103 12.1335 19.9808L13.3169 19.3142L14.5002 19.9808C14.5526 20.0103 14.6124 20.0243 14.6725 20.021C14.7326 20.0178 14.7905 19.9975 14.8395 19.9625C14.8884 19.9275 14.9264 19.8793 14.949 19.8235C14.9716 19.7677 14.9777 19.7067 14.9669 19.6475L14.7335 18.2308L15.7335 17.1975C15.7738 17.1566 15.8022 17.1055 15.8157 17.0498C15.8292 16.994 15.8273 16.9356 15.8102 16.8808C15.793 16.8261 15.7614 16.777 15.7185 16.7388C15.6757 16.7006 15.6232 16.6748 15.5669 16.6642Z" fill="#82BF00"/>
<path d="M22.2329 16.6642L20.8829 16.4642L20.2829 15.1975C20.2624 15.1387 20.2241 15.0877 20.1733 15.0516C20.1226 15.0155 20.0618 14.9961 19.9995 14.9961C19.9372 14.9961 19.8765 15.0155 19.8257 15.0516C19.775 15.0877 19.7367 15.1387 19.7162 15.1975L19.1162 16.4642L17.7662 16.6642C17.7084 16.6724 17.6541 16.6964 17.6091 16.7335C17.5641 16.7707 17.5303 16.8196 17.5113 16.8747C17.4924 16.9299 17.489 16.9892 17.5016 17.0462C17.5143 17.1031 17.5424 17.1555 17.5829 17.1975L18.5829 18.2308L18.3495 19.6475C18.3386 19.7067 18.3448 19.7677 18.3674 19.8235C18.39 19.8793 18.4279 19.9275 18.4769 19.9625C18.5259 19.9975 18.5838 20.0178 18.6439 20.021C18.704 20.0243 18.7638 20.0103 18.8162 19.9808L19.9995 19.3142L21.1829 19.9808C21.2353 20.0103 21.2951 20.0243 21.3552 20.021C21.4153 20.0178 21.4732 19.9975 21.5222 19.9625C21.5711 19.9275 21.6091 19.8793 21.6317 19.8235C21.6542 19.7677 21.6604 19.7067 21.6495 19.6475L21.4162 18.2308L22.4162 17.1975C22.4567 17.1555 22.4848 17.1031 22.4974 17.0462C22.5101 16.9892 22.5067 16.9299 22.4877 16.8747C22.4688 16.8196 22.4349 16.7707 22.39 16.7335C22.345 16.6964 22.2906 16.6724 22.2329 16.6642Z" fill="#82BF00"/>
<path d="M28.9008 16.6642L27.5508 16.4642L26.9508 15.1975C26.9304 15.1387 26.8921 15.0877 26.8413 15.0516C26.7905 15.0155 26.7298 14.9961 26.6675 14.9961C26.6052 14.9961 26.5445 15.0155 26.4937 15.0516C26.4429 15.0877 26.4046 15.1387 26.3842 15.1975L25.7842 16.4642L24.4342 16.6642C24.3764 16.6724 24.3221 16.6964 24.2771 16.7335C24.2321 16.7707 24.1983 16.8196 24.1793 16.8747C24.1603 16.9299 24.157 16.9892 24.1696 17.0462C24.1822 17.1031 24.2103 17.1555 24.2508 17.1975L25.2508 18.2308L25.0175 19.6475C25.0066 19.7067 25.0128 19.7677 25.0354 19.8235C25.0579 19.8793 25.0959 19.9275 25.1449 19.9625C25.1939 19.9975 25.2518 20.0178 25.3119 20.021C25.372 20.0243 25.4317 20.0103 25.4842 19.9808L26.6675 19.3142L27.8508 19.9808C27.9033 20.0103 27.9631 20.0243 28.0232 20.021C28.0832 20.0178 28.1412 19.9975 28.1901 19.9625C28.2391 19.9275 28.2771 19.8793 28.2996 19.8235C28.3222 19.7677 28.3284 19.7067 28.3175 19.6475L28.0842 18.2308L29.0842 17.1975C29.1247 17.1555 29.1528 17.1031 29.1654 17.0462C29.178 16.9892 29.1747 16.9299 29.1557 16.8747C29.1367 16.8196 29.1029 16.7707 29.0579 16.7335C29.013 16.6964 28.9586 16.6724 28.9008 16.6642Z" fill="#82BF00"/>
<path d="M5 32.9154C4.80896 32.913 4.62093 32.8674 4.45 32.782C4.24089 32.6796 4.06456 32.5207 3.94088 32.3234C3.8172 32.1261 3.75109 31.8982 3.75 31.6654V9.9987C3.75438 9.2265 4.06307 8.48717 4.60911 7.94114C5.15514 7.3951 5.89447 7.08641 6.66667 7.08203H33.3333C34.1055 7.08641 34.8449 7.3951 35.3909 7.94114C35.9369 8.48717 36.2456 9.2265 36.25 9.9987V24.9987C36.2456 25.7709 35.9369 26.5102 35.3909 27.0563C34.8449 27.6023 34.1055 27.911 33.3333 27.9154H12.0833L5.75 32.6654C5.5342 32.8287 5.27066 32.9166 5 32.9154ZM6.66667 9.58203C6.55616 9.58203 6.45018 9.62593 6.37204 9.70407C6.2939 9.78221 6.25 9.88819 6.25 9.9987V29.1654L10.9167 25.6654C11.1325 25.502 11.396 25.4141 11.6667 25.4154H33.3333C33.4438 25.4154 33.5498 25.3715 33.628 25.2933C33.7061 25.2152 33.75 25.1092 33.75 24.9987V9.9987C33.75 9.88819 33.7061 9.78221 33.628 9.70407C33.5498 9.62593 33.4438 9.58203 33.3333 9.58203H6.66667Z" fill="#82BF00"/>
</svg>
