<svg width="40" height="40" viewBox="0 0 40 40" fill="none" xmlns="http://www.w3.org/2000/svg">
<path d="M10 31.2513C9.66982 31.247 9.35438 31.1139 9.12089 30.8804C8.8874 30.6469 8.75432 30.3315 8.75 30.0013V18.668C8.75 18.3364 8.8817 18.0185 9.11612 17.7841C9.35054 17.5497 9.66848 17.418 10 17.418C10.3315 17.418 10.6495 17.5497 10.8839 17.7841C11.1183 18.0185 11.25 18.3364 11.25 18.668V30.0013C11.2457 30.3315 11.1126 30.6469 10.8791 30.8804C10.6456 31.1139 10.3302 31.247 10 31.2513Z" fill="#82BF00"/>
<path d="M30 31.2513C29.6698 31.247 29.3544 31.1139 29.1209 30.8804C28.8874 30.6469 28.7543 30.3315 28.75 30.0013V18.668C28.75 18.3364 28.8817 18.0185 29.1161 17.7841C29.3505 17.5497 29.6685 17.418 30 17.418C30.3315 17.418 30.6495 17.5497 30.8839 17.7841C31.1183 18.0185 31.25 18.3364 31.25 18.668V30.0013C31.2457 30.3315 31.1126 30.6469 30.8791 30.8804C30.6456 31.1139 30.3302 31.247 30 31.2513Z" fill="#82BF00"/>
<path d="M16.666 31.2513C16.3358 31.247 16.0204 31.1139 15.7869 30.8804C15.5534 30.6469 15.4203 30.3315 15.416 30.0013V18.668C15.416 18.3364 15.5477 18.0185 15.7821 17.7841C16.0166 17.5497 16.3345 17.418 16.666 17.418C16.9975 17.418 17.3155 17.5497 17.5499 17.7841C17.7843 18.0185 17.916 18.3364 17.916 18.668V30.0013C17.9117 30.3315 17.7786 30.6469 17.5451 30.8804C17.3116 31.1139 16.9962 31.247 16.666 31.2513Z" fill="#82BF00"/>
<path d="M23.4492 31.2513C23.119 31.247 22.8036 31.1139 22.5701 30.8804C22.3366 30.6469 22.2035 30.3315 22.1992 30.0013V18.668C22.1992 18.3364 22.3309 18.0185 22.5653 17.7841C22.7998 17.5497 23.1177 17.418 23.4492 17.418C23.7807 17.418 24.0987 17.5497 24.3331 17.7841C24.5675 18.0185 24.6992 18.3364 24.6992 18.668V30.0013C24.6992 30.3328 24.5675 30.6508 24.3331 30.8852C24.0987 31.1196 23.7807 31.2513 23.4492 31.2513Z" fill="#82BF00"/>
<path d="M33.3327 20.0009H6.66607C6.33455 20.0009 6.0166 19.8692 5.78218 19.6348C5.54776 19.4004 5.41607 19.0824 5.41607 18.7509V15.8676C5.41253 15.096 5.59375 14.3348 5.9446 13.6476C6.29545 12.9604 6.80571 12.3672 7.43273 11.9176L17.4327 4.90092C18.1845 4.37307 19.0808 4.08984 19.9994 4.08984C20.918 4.08984 21.8143 4.37307 22.5661 4.90092L32.5661 11.9176C33.1931 12.3672 33.7034 12.9604 34.0542 13.6476C34.405 14.3348 34.5863 15.096 34.5827 15.8676V18.6676C34.5942 18.8386 34.5703 19.0102 34.5126 19.1716C34.4549 19.333 34.3647 19.4808 34.2474 19.6059C34.1302 19.7309 33.9885 19.8305 33.8311 19.8985C33.6738 19.9664 33.5041 20.0013 33.3327 20.0009ZM7.91607 17.4176H32.0827V15.8676C32.0888 15.4978 32.0056 15.1321 31.8402 14.8013C31.6748 14.4706 31.4322 14.1846 31.1327 13.9676L21.1327 6.95092C20.802 6.71473 20.4058 6.58776 19.9994 6.58776C19.593 6.58776 19.1968 6.71473 18.8661 6.95092L8.86607 13.9676C8.56664 14.1846 8.32395 14.4706 8.15858 14.8013C7.9932 15.1321 7.91001 15.4978 7.91607 15.8676V17.4176Z" fill="#82BF00"/>
<path d="M31.666 36.25H8.33268C7.56048 36.2456 6.82116 35.9369 6.27512 35.3909C5.72909 34.8449 5.42039 34.1055 5.41602 33.3333V31.6667C5.42039 30.8945 5.72909 30.1551 6.27512 29.6091C6.82116 29.0631 7.56048 28.7544 8.33268 28.75H31.666C32.4382 28.7544 33.1775 29.0631 33.7236 29.6091C34.2696 30.1551 34.5783 30.8945 34.5827 31.6667V33.3333C34.5783 34.1055 34.2696 34.8449 33.7236 35.3909C33.1775 35.9369 32.4382 36.2456 31.666 36.25ZM8.33268 31.25C8.22218 31.25 8.11619 31.2939 8.03805 31.372C7.95991 31.4502 7.91602 31.5562 7.91602 31.6667V33.3333C7.91602 33.4438 7.95991 33.5498 8.03805 33.628C8.11619 33.7061 8.22218 33.75 8.33268 33.75H31.666C31.7765 33.75 31.8825 33.7061 31.9606 33.628C32.0388 33.5498 32.0827 33.4438 32.0827 33.3333V31.6667C32.0827 31.5562 32.0388 31.4502 31.9606 31.372C31.8825 31.2939 31.7765 31.25 31.666 31.25H8.33268Z" fill="#82BF00"/>
</svg>
