<svg width="134" height="25" viewBox="0 0 134 25" fill="none" xmlns="http://www.w3.org/2000/svg">
<path d="M-0.00248574 19V0.818181H11.3345V3.17969H2.74077V8.15128H6.80682C8.15625 8.15128 9.30149 8.37026 10.2425 8.80824C11.1895 9.24621 11.9116 9.8647 12.4087 10.6637C12.9118 11.4627 13.1634 12.4038 13.1634 13.4869C13.1634 14.57 12.9118 15.5258 12.4087 16.3544C11.9116 17.183 11.1895 17.8311 10.2425 18.2987C9.30149 18.7662 8.15625 19 6.80682 19H-0.00248574ZM2.74077 16.6918H6.80682C7.58807 16.6918 8.24799 16.5379 8.78658 16.2301C9.33108 15.9223 9.74242 15.5228 10.0206 15.0316C10.3047 14.5404 10.4467 14.0136 10.4467 13.4513C10.4467 12.6346 10.133 11.9332 9.50568 11.3473C8.87831 10.7554 7.97869 10.4595 6.80682 10.4595H2.74077V16.6918ZM20.1591 19.3018C19.295 19.3018 18.5137 19.142 17.8153 18.8224C17.117 18.4969 16.5636 18.0264 16.1552 17.4109C15.7527 16.7953 15.5515 16.0407 15.5515 15.147C15.5515 14.3776 15.6995 13.7443 15.9954 13.2472C16.2913 12.75 16.6908 12.3564 17.1939 12.0664C17.697 11.7764 18.2592 11.5574 18.8807 11.4094C19.5021 11.2615 20.1354 11.149 20.7805 11.0721C21.5973 10.9774 22.2602 10.9004 22.7692 10.8413C23.2782 10.7762 23.6481 10.6726 23.8789 10.5305C24.1097 10.3885 24.2251 10.1577 24.2251 9.83807V9.77592C24.2251 9.00059 24.0062 8.39986 23.5682 7.97372C23.1361 7.54758 22.491 7.33452 21.6328 7.33452C20.7391 7.33452 20.0348 7.53279 19.5199 7.92933C19.0109 8.31996 18.6587 8.75497 18.4634 9.23438L15.9688 8.66619C16.2647 7.83759 16.6967 7.1688 17.2649 6.6598C17.839 6.14489 18.4989 5.77202 19.2447 5.54119C19.9904 5.30445 20.7746 5.18608 21.5973 5.18608C22.1418 5.18608 22.7189 5.25118 23.3285 5.38139C23.944 5.50568 24.5181 5.73651 25.0508 6.07386C25.5894 6.41122 26.0303 6.89358 26.3736 7.52095C26.7169 8.1424 26.8885 8.95028 26.8885 9.9446V19H24.2962V17.1357H24.1896C24.018 17.4789 23.7605 17.8163 23.4173 18.1477C23.074 18.4792 22.633 18.7544 22.0945 18.9734C21.5559 19.1924 20.9107 19.3018 20.1591 19.3018ZM20.7362 17.1712C21.4701 17.1712 22.0974 17.0262 22.6183 16.7362C23.145 16.4461 23.5445 16.0674 23.8168 15.5998C24.0949 15.1263 24.234 14.6203 24.234 14.0817V12.3239C24.1393 12.4186 23.9558 12.5073 23.6836 12.5902C23.4173 12.6671 23.1125 12.7352 22.7692 12.7944C22.4259 12.8477 22.0915 12.898 21.766 12.9453C21.4405 12.9867 21.1682 13.0223 20.9492 13.0518C20.4343 13.117 19.9638 13.2264 19.5376 13.3803C19.1174 13.5342 18.7801 13.7562 18.5256 14.0462C18.277 14.3303 18.1527 14.709 18.1527 15.1825C18.1527 15.8395 18.3954 16.3366 18.8807 16.674C19.366 17.0054 19.9845 17.1712 20.7362 17.1712ZM39.6659 11.0366V13.3359H32.2796V11.0366H39.6659ZM33.0253 5.36364V19H30.4241V5.36364H33.0253ZM41.5214 5.36364V19H38.9291V5.36364H41.5214ZM45.0725 19V5.36364H47.727V11.081H49.0054L53.5065 5.36364H56.7913L51.509 11.9954L56.8534 19H53.5597L49.4493 13.549H47.727V19H45.0725ZM69.915 19L63.807 10.8501H61.8716V19H59.1284V0.818181H61.8716V8.49751H62.7683L69.6397 0.818181H72.9867L65.7157 8.95916L73.2619 19H69.915ZM75.5901 24.1136V5.36364H78.1824V7.57422H78.4044C78.5583 7.29013 78.7802 6.96165 79.0702 6.58878C79.3602 6.21591 79.7627 5.89039 80.2776 5.61222C80.7925 5.32812 81.4732 5.18608 82.3195 5.18608C83.4204 5.18608 84.4028 5.46425 85.267 6.0206C86.1311 6.57694 86.8087 7.37891 87.3 8.42649C87.7971 9.47408 88.0457 10.7347 88.0457 12.2085C88.0457 13.6822 87.8001 14.9458 87.3089 15.9993C86.8176 17.0469 86.1429 17.8548 85.2847 18.4229C84.4265 18.9852 83.447 19.2663 82.3461 19.2663C81.5175 19.2663 80.8399 19.1272 80.3131 18.8491C79.7923 18.5709 79.3839 18.2454 79.088 17.8725C78.7921 17.4996 78.5642 17.1682 78.4044 16.8782H78.2446V24.1136H75.5901ZM78.1913 12.1818C78.1913 13.1406 78.3304 13.9811 78.6086 14.7031C78.8867 15.4252 79.2892 15.9904 79.816 16.3988C80.3427 16.8013 80.9878 17.0025 81.7513 17.0025C82.5444 17.0025 83.2073 16.7924 83.74 16.3722C84.2726 15.946 84.6751 15.369 84.9474 14.641C85.2255 13.913 85.3646 13.0933 85.3646 12.1818C85.3646 11.2822 85.2285 10.4743 84.9562 9.75817C84.6899 9.04202 84.2874 8.4768 83.7488 8.0625C83.2162 7.6482 82.5503 7.44105 81.7513 7.44105C80.9819 7.44105 80.3309 7.63932 79.7982 8.03587C79.2715 8.43241 78.872 8.9858 78.5997 9.69602C78.3274 10.4062 78.1913 11.2348 78.1913 12.1818ZM94.9882 19.3018C94.1241 19.3018 93.3428 19.142 92.6444 18.8224C91.9461 18.4969 91.3927 18.0264 90.9843 17.4109C90.5818 16.7953 90.3806 16.0407 90.3806 15.147C90.3806 14.3776 90.5286 13.7443 90.8245 13.2472C91.1204 12.75 91.5199 12.3564 92.023 12.0664C92.5261 11.7764 93.0883 11.5574 93.7098 11.4094C94.3312 11.2615 94.9645 11.149 95.6096 11.0721C96.4264 10.9774 97.0893 10.9004 97.5983 10.8413C98.1073 10.7762 98.4772 10.6726 98.708 10.5305C98.9388 10.3885 99.0542 10.1577 99.0542 9.83807V9.77592C99.0542 9.00059 98.8353 8.39986 98.3973 7.97372C97.9652 7.54758 97.3201 7.33452 96.4619 7.33452C95.5682 7.33452 94.8639 7.53279 94.349 7.92933C93.84 8.31996 93.4878 8.75497 93.2925 9.23438L90.7979 8.66619C91.0938 7.83759 91.5258 7.1688 92.094 6.6598C92.6681 6.14489 93.328 5.77202 94.0738 5.54119C94.8195 5.30445 95.6037 5.18608 96.4264 5.18608C96.9709 5.18608 97.548 5.25118 98.1576 5.38139C98.7731 5.50568 99.3472 5.73651 99.8799 6.07386C100.418 6.41122 100.859 6.89358 101.203 7.52095C101.546 8.1424 101.718 8.95028 101.718 9.9446V19H99.1253V17.1357H99.0187C98.8471 17.4789 98.5896 17.8163 98.2464 18.1477C97.9031 18.4792 97.4622 18.7544 96.9236 18.9734C96.385 19.1924 95.7398 19.3018 94.9882 19.3018ZM95.5653 17.1712C96.2992 17.1712 96.9265 17.0262 97.4474 16.7362C97.9741 16.4461 98.3736 16.0674 98.6459 15.5998C98.924 15.1263 99.0631 14.6203 99.0631 14.0817V12.3239C98.9684 12.4186 98.7849 12.5073 98.5127 12.5902C98.2464 12.6671 97.9416 12.7352 97.5983 12.7944C97.255 12.8477 96.9206 12.898 96.5951 12.9453C96.2696 12.9867 95.9973 13.0223 95.7783 13.0518C95.2634 13.117 94.7929 13.2264 94.3667 13.3803C93.9465 13.5342 93.6092 13.7562 93.3547 14.0462C93.1061 14.3303 92.9818 14.709 92.9818 15.1825C92.9818 15.8395 93.2245 16.3366 93.7098 16.674C94.1951 17.0054 94.8136 17.1712 95.5653 17.1712ZM111.121 23.6431V0.818181H113.776V23.6431H111.121ZM111.121 19.2752C110.157 19.2752 109.278 19.1095 108.485 18.7781C107.692 18.4407 107.008 17.9613 106.434 17.3398C105.86 16.7184 105.416 15.9756 105.102 15.1115C104.795 14.2474 104.641 13.2915 104.641 12.244C104.641 11.1845 104.795 10.2228 105.102 9.35866C105.416 8.49455 105.86 7.75178 106.434 7.13033C107.008 6.50888 107.692 6.02947 108.485 5.69212C109.278 5.35476 110.157 5.18608 111.121 5.18608H111.778V19.2752H111.121ZM111.121 17.038H111.494V7.4233H111.121C110.482 7.4233 109.926 7.5535 109.452 7.81392C108.979 8.06842 108.585 8.42057 108.272 8.87038C107.958 9.31428 107.721 9.82623 107.561 10.4062C107.408 10.9863 107.331 11.5988 107.331 12.244C107.331 13.1081 107.47 13.9041 107.748 14.6321C108.026 15.3542 108.446 15.9371 109.009 16.381C109.571 16.819 110.275 17.038 111.121 17.038ZM113.776 19.2752H113.11V5.18608H113.776C114.741 5.18608 115.62 5.35476 116.413 5.69212C117.206 6.02947 117.886 6.50888 118.455 7.13033C119.029 7.75178 119.47 8.49455 119.777 9.35866C120.091 10.2228 120.248 11.1845 120.248 12.244C120.248 13.2915 120.091 14.2474 119.777 15.1115C119.47 15.9756 119.029 16.7184 118.455 17.3398C117.886 17.9613 117.206 18.4407 116.413 18.7781C115.62 19.1095 114.741 19.2752 113.776 19.2752ZM113.776 17.038C114.415 17.038 114.971 16.9137 115.445 16.6651C115.918 16.4106 116.312 16.0614 116.626 15.6175C116.939 15.1677 117.173 14.6558 117.327 14.0817C117.481 13.5017 117.558 12.8891 117.558 12.244C117.558 11.3858 117.419 10.5927 117.141 9.8647C116.868 9.1308 116.451 8.5419 115.889 8.09801C115.327 7.6482 114.622 7.4233 113.776 7.4233H113.394V17.038H113.776ZM121.555 7.65412V5.36364H133.061V7.65412H128.613V19H126.021V7.65412H121.555Z" fill="#2D2D2D"/>
</svg>
