<svg width="18" height="18" viewBox="0 0 18 18" fill="none" xmlns="http://www.w3.org/2000/svg">
<path d="M9.00065 9.91536C9.50691 9.91536 9.91732 9.50496 9.91732 8.9987C9.91732 8.49244 9.50691 8.08203 9.00065 8.08203C8.49439 8.08203 8.08398 8.49244 8.08398 8.9987C8.08398 9.50496 8.49439 9.91536 9.00065 9.91536Z" fill="#2D2D2D"/>
<path d="M5.33464 9.91536C5.8409 9.91536 6.2513 9.50496 6.2513 8.9987C6.2513 8.49244 5.8409 8.08203 5.33464 8.08203C4.82837 8.08203 4.41797 8.49244 4.41797 8.9987C4.41797 9.50496 4.82837 9.91536 5.33464 9.91536Z" fill="#2D2D2D"/>
<path d="M12.6686 9.91536C13.1749 9.91536 13.5853 9.50496 13.5853 8.9987C13.5853 8.49244 13.1749 8.08203 12.6686 8.08203C12.1624 8.08203 11.752 8.49244 11.752 8.9987C11.752 9.50496 12.1624 9.91536 12.6686 9.91536Z" fill="#2D2D2D"/>
<path d="M0.750701 17.9356C0.64049 17.936 0.531793 17.9099 0.43377 17.8595C0.335748 17.8091 0.251275 17.7359 0.187471 17.6461C0.123667 17.5562 0.0824032 17.4523 0.067157 17.3432C0.0519109 17.234 0.0631295 17.1228 0.0998675 17.0189L1.28237 13.4897C0.186466 11.6098 -0.187524 9.39527 0.230269 7.25975C0.648062 5.12424 1.82906 3.21389 3.55261 1.8856C5.27616 0.557319 7.42435 -0.0980241 9.59583 0.0420136C11.7673 0.182051 13.8135 1.10789 15.3522 2.64655C16.8909 4.18521 17.8167 6.23144 17.9567 8.40292C18.0968 10.5744 17.4414 12.7226 16.1132 14.4462C14.7849 16.1697 12.8745 17.3507 10.739 17.7685C8.60349 18.1863 6.38892 17.8123 4.50903 16.7164L0.970701 17.8989C0.90022 17.9244 0.825657 17.9369 0.750701 17.9356ZM4.6007 15.2772C4.73111 15.2769 4.8587 15.3151 4.96737 15.3872C6.55039 16.3725 8.44099 16.7398 10.2778 16.4189C12.1145 16.098 13.7686 15.1115 14.9238 13.6478C16.079 12.1842 16.6543 10.3462 16.5396 8.4851C16.425 6.62404 15.6285 4.8705 14.3024 3.55971C12.9763 2.24891 11.2137 1.47282 9.35139 1.37979C7.48912 1.28676 5.65789 1.88331 4.20776 3.05542C2.75763 4.22752 1.79033 5.89295 1.49079 7.73332C1.19124 9.5737 1.58046 11.4599 2.58403 13.0314C2.63853 13.1178 2.67335 13.2152 2.68602 13.3166C2.6987 13.4179 2.68891 13.5209 2.65737 13.6181L1.81403 16.1572L4.41737 15.3139C4.47625 15.2924 4.53808 15.28 4.6007 15.2772Z" fill="#2D2D2D"/>
</svg>
