<svg width="18" height="16" viewBox="0 0 18 16" fill="none" xmlns="http://www.w3.org/2000/svg">
<path d="M8.99942 15.6619C8.86176 15.6633 8.7252 15.6373 8.59771 15.5854C8.47023 15.5334 8.35437 15.4566 8.25692 15.3594L1.48275 8.57603C1.00706 8.10345 0.634967 7.53701 0.390146 6.91276C0.145325 6.28852 0.0331406 5.62015 0.0607325 4.95018C0.0883245 4.28021 0.255089 3.62333 0.550411 3.02133C0.845734 2.41933 1.26315 1.8854 1.77608 1.45353C2.27805 1.02753 2.86357 0.711225 3.49503 0.524943C4.12649 0.338661 4.78994 0.28652 5.44275 0.371867C6.14179 0.46481 6.81394 0.701807 7.41668 1.06787C8.01941 1.43393 8.53963 1.92109 8.94442 2.49853L8.99942 2.57187L9.05442 2.49853C9.46188 1.92618 9.98328 1.44425 10.5859 1.08301C11.1885 0.721766 11.8592 0.489014 12.5561 0.399367C13.2089 0.31402 13.8723 0.366162 14.5038 0.552443C15.1353 0.738725 15.7208 1.05503 16.2227 1.48103C16.7357 1.9129 17.1531 2.44683 17.4484 3.04883C17.7437 3.65083 17.9105 4.30771 17.9381 4.97768C17.9657 5.64765 17.8535 6.31602 17.6087 6.94026C17.3639 7.56451 16.9918 8.13095 16.5161 8.60353L9.74192 15.3319C9.64679 15.4341 9.53197 15.516 9.40438 15.5727C9.27678 15.6294 9.13903 15.6597 8.99942 15.6619ZM4.83775 1.7102C4.04321 1.70818 3.2736 1.98745 2.66525 2.49853C2.29777 2.80826 1.99874 3.19104 1.78716 3.62255C1.57558 4.05406 1.45607 4.52487 1.43625 5.00505C1.41642 5.48524 1.4967 5.9643 1.67198 6.41178C1.84727 6.85927 2.11372 7.2654 2.45442 7.60437L8.99942 14.1494L15.5444 7.60437C15.8851 7.2654 16.1516 6.85927 16.3269 6.41178C16.5021 5.9643 16.5824 5.48524 16.5626 5.00505C16.5428 4.52487 16.4233 4.05406 16.2117 3.62255C16.0001 3.19104 15.7011 2.80826 15.3336 2.49853C14.9783 2.19452 14.5625 1.96947 14.1137 1.8383C13.6649 1.70713 13.1933 1.67284 12.7303 1.7377C12.2205 1.79957 11.7295 1.96781 11.2889 2.23152C10.8484 2.49523 10.4681 2.84852 10.1728 3.26853L9.55858 4.1302C9.49162 4.21424 9.40657 4.2821 9.30976 4.32874C9.21295 4.37538 9.10687 4.3996 8.99942 4.3996C8.89196 4.3996 8.78588 4.37538 8.68908 4.32874C8.59227 4.2821 8.50722 4.21424 8.44025 4.1302L7.82608 3.26853C7.53074 2.84852 7.15047 2.49523 6.7099 2.23152C6.26934 1.96781 5.7783 1.79957 5.26858 1.7377L4.83775 1.7102Z" fill="#2D2D2D"/>
</svg>
