<svg width="15" height="15" viewBox="0 0 15 15" fill="none" xmlns="http://www.w3.org/2000/svg">
<path d="M7.49997 0C4.50451 0 2.06754 2.43697 2.06754 5.4324C2.06754 9.14982 6.92903 14.6072 7.13601 14.8377C7.33043 15.0543 7.66986 15.0539 7.86392 14.8377C8.0709 14.6072 12.9324 9.14982 12.9324 5.4324C12.9323 2.43697 10.4954 0 7.49997 0ZM7.49997 8.1656C5.99288 8.1656 4.7668 6.93949 4.7668 5.4324C4.7668 3.92531 5.99291 2.69924 7.49997 2.69924C9.00703 2.69924 10.2331 3.92534 10.2331 5.43243C10.2331 6.93952 9.00703 8.1656 7.49997 8.1656Z" fill="#2D2D2D"/>
</svg>
