<svg width="16" height="18" viewBox="0 0 16 18" fill="none" xmlns="http://www.w3.org/2000/svg">
<path d="M8 9.6875C7.04818 9.6875 6.11773 9.40525 5.32632 8.87645C4.53491 8.34764 3.91808 7.59604 3.55383 6.71667C3.18959 5.8373 3.09428 4.86966 3.27997 3.93613C3.46566 3.0026 3.92401 2.14509 4.59705 1.47205C5.27009 0.799011 6.1276 0.340664 7.06113 0.154973C7.99466 -0.0307184 8.9623 0.0645852 9.84167 0.428832C10.721 0.793079 11.4726 1.40991 12.0014 2.20132C12.5303 2.99273 12.8125 3.92318 12.8125 4.875C12.8125 6.15136 12.3055 7.37543 11.403 8.27795C10.5004 9.18047 9.27636 9.6875 8 9.6875ZM8 1.4375C7.32013 1.4375 6.65552 1.63911 6.09023 2.01683C5.52494 2.39454 5.08434 2.93141 4.82417 3.55953C4.56399 4.18765 4.49592 4.87882 4.62855 5.54562C4.76119 6.21243 5.08858 6.82494 5.56932 7.30568C6.05007 7.78643 6.66257 8.11382 7.32938 8.24645C7.99619 8.37909 8.68736 8.31101 9.31548 8.05084C9.9436 7.79066 10.4805 7.35007 10.8582 6.78477C11.2359 6.21948 11.4375 5.55488 11.4375 4.875C11.4375 3.96332 11.0753 3.08898 10.4307 2.44432C9.78603 1.79967 8.91168 1.4375 8 1.4375Z" fill="#2D2D2D"/>
<path d="M8.00001 17.9381C5.92331 17.9398 3.8648 17.5511 1.93167 16.7923C1.5099 16.6325 1.15498 16.334 0.925129 15.9459C0.695276 15.5578 0.604141 15.1032 0.666674 14.6565C0.886344 12.8662 1.7533 11.2182 3.10413 10.023C4.45496 8.82776 6.19633 8.16797 8.00001 8.16797C9.80368 8.16797 11.5451 8.82776 12.8959 10.023C14.2467 11.2182 15.1137 12.8662 15.3333 14.6565C15.3971 15.1009 15.3086 15.5539 15.0823 15.9417C14.8559 16.3295 14.505 16.6293 14.0867 16.7923C12.1483 17.555 10.083 17.9438 8.00001 17.9381ZM8.00001 9.68814C6.55315 9.69309 5.15629 10.218 4.06419 11.167C2.97209 12.1161 2.25753 13.4261 2.05084 14.8581C2.03322 14.994 2.06154 15.1319 2.1313 15.2498C2.20106 15.3678 2.30826 15.459 2.43584 15.509C6.01102 16.9204 9.98899 16.9204 13.5642 15.509C13.6918 15.459 13.799 15.3678 13.8687 15.2498C13.9385 15.1319 13.9668 14.994 13.9492 14.8581C13.7425 13.4261 13.0279 12.1161 11.9358 11.167C10.8437 10.218 9.44686 9.69309 8.00001 9.68814Z" fill="#2D2D2D"/>
</svg>
