<svg width="136" height="96" viewBox="0 0 136 96" fill="none" xmlns="http://www.w3.org/2000/svg">
<path fill-rule="evenodd" clip-rule="evenodd" d="M26.6369 64.125C11.9244 61.275 0.805664 48.3125 0.805664 32.775C0.805664 15.15 15.1119 0.84375 32.7369 0.84375C50.3619 0.84375 64.6682 15.15 64.6682 32.775C64.6682 56.2625 56.7557 70.85 47.4682 79.9688C33.2494 93.9313 15.4432 95.1437 15.4432 95.1437C13.6307 95.275 11.9119 94.3438 11.0244 92.7625C10.1307 91.1875 10.2369 89.2313 11.2869 87.7562C11.2869 87.7562 19.7494 75.8438 25.0244 67.0312C25.5744 66.1063 26.1307 65.0875 26.6369 64.125ZM32.7369 10.2188C20.2869 10.2188 10.1807 20.325 10.1807 32.775C10.1807 45.225 20.2869 55.3313 32.7369 55.3313C34.5057 55.3313 35.7432 56.0563 36.6432 57.0938C37.3994 57.9688 38.1119 59.3687 37.8682 61.425C37.6557 63.2062 35.8307 67.2312 33.0682 71.85C30.9682 75.35 28.3869 79.325 25.9932 82.8938C30.6119 81.0563 36.0119 78.0813 40.8994 73.275C48.8494 65.475 55.2932 52.875 55.2932 32.775C55.2932 20.325 45.1869 10.2188 32.7369 10.2188Z" fill="black"/>
<path fill-rule="evenodd" clip-rule="evenodd" d="M97.1477 64.125C82.4352 61.275 71.3164 48.3125 71.3164 32.775C71.3164 15.15 85.6227 0.84375 103.248 0.84375C120.873 0.84375 135.179 15.15 135.179 32.775C135.179 56.2625 127.266 70.85 117.979 79.9688C103.76 93.9313 85.9539 95.1437 85.9539 95.1437C84.1414 95.275 82.4227 94.3438 81.5352 92.7625C80.6477 91.1875 80.7477 89.2313 81.7977 87.7562C81.7977 87.7562 90.2602 75.8438 95.5352 67.0312C96.0852 66.1063 96.6414 65.0875 97.1477 64.125ZM103.248 10.2188C90.7977 10.2188 80.6914 20.325 80.6914 32.775C80.6914 45.225 90.7977 55.3313 103.248 55.3313C105.016 55.3313 106.254 56.0563 107.154 57.0938C107.91 57.9688 108.623 59.3687 108.379 61.425C108.166 63.2062 106.341 67.2312 103.579 71.85C101.479 75.35 98.8977 79.325 96.5039 82.8938C101.123 81.0563 106.523 78.0813 111.41 73.275C119.36 65.475 125.804 52.875 125.804 32.775C125.804 20.325 115.698 10.2188 103.248 10.2188Z" fill="black"/>
</svg>
