<svg width="20" height="18" viewBox="0 0 20 18" fill="none" xmlns="http://www.w3.org/2000/svg">
<path d="M11.8568 0.819227C11.5818 0.544227 11.1005 0.406727 10.688 0.612977C10.2755 0.750477 10.0693 1.16298 10.0693 1.57548V5.08173C7.04426 4.87548 4.63801 5.63173 2.98801 7.21298C1.06301 9.13798 0.169263 12.163 0.444263 16.2192C0.444263 16.7005 0.856764 17.1817 1.33801 17.2505C1.75051 17.3192 2.16301 17.113 2.36926 16.7005C3.12551 15.1192 4.70676 13.0567 10.0693 13.4005V16.4255C10.0693 16.838 10.3443 17.2505 10.688 17.388C10.8255 17.4567 10.963 17.4567 11.1005 17.4567C11.3755 17.4567 11.6505 17.3192 11.8568 17.1817L19.2818 9.75673C19.488 9.55048 19.5568 9.27548 19.5568 9.00048C19.5568 8.72548 19.4193 8.45048 19.2818 8.24423L11.8568 0.819227ZM11.4443 15.6692V13.1255C11.4443 12.5755 11.0318 12.0942 10.5505 12.0942C9.93176 12.0255 9.38176 12.0255 8.83176 12.0255C5.46301 12.0255 3.12551 12.988 1.75051 15.0505C1.75051 11.9567 2.50676 9.68798 3.95051 8.24423C5.39426 6.86923 7.52551 6.25048 10.3443 6.52548C10.6193 6.52548 10.8943 6.45673 11.1005 6.25048C11.3068 6.04423 11.4443 5.76923 11.4443 5.49423V2.33173L18.113 9.00048L11.4443 15.6692Z" fill="black"/>
</svg>
