<svg width="30" height="30" viewBox="0 0 30 30" fill="none" xmlns="http://www.w3.org/2000/svg">
<g clip-path="url(#clip0_20_32)">
<path d="M21.0221 10.6287L13.4147 16.8469L13.0568 17.1401C12.9781 17.2024 12.9268 17.2929 12.9136 17.3924L12.8335 18.0537L12.6136 19.9117C12.6156 19.9343 12.6086 19.9568 12.594 19.9742C12.5795 19.9916 12.5586 20.0025 12.536 20.0046C12.5134 20.0066 12.4909 19.9996 12.4735 19.985C12.4561 19.9705 12.4452 19.9496 12.4431 19.927L11.8244 18.0691L11.1852 16.1685C11.1579 16.0833 11.1614 15.9913 11.195 15.9084C11.2287 15.8256 11.2903 15.7571 11.3693 15.7151L19.2852 11.1776L20.775 10.3253C20.9914 10.1992 21.213 10.4719 21.0221 10.6287Z" fill="#82BF00"/>
<path d="M15 0C12.0333 0 9.13319 0.879735 6.66645 2.52796C4.19972 4.17618 2.27713 6.51886 1.14181 9.25975C0.00649932 12.0006 -0.290551 15.0166 0.288228 17.9264C0.867006 20.8361 2.29562 23.5088 4.3934 25.6066C6.49119 27.7044 9.16394 29.133 12.0737 29.7118C14.9834 30.2906 17.9994 29.9935 20.7403 28.8582C23.4811 27.7229 25.8238 25.8003 27.472 23.3336C29.1203 20.8668 30 17.9667 30 15C30 11.0218 28.4197 7.20644 25.6066 4.3934C22.7936 1.58035 18.9783 0 15 0ZM24.3563 8.68295L21.4278 21.6222C21.2898 22.229 20.5193 22.5034 19.979 22.1335L15.5574 19.1335L13.3057 21.2625C13.2139 21.3487 13.1024 21.4111 12.981 21.4444C12.8596 21.4778 12.7319 21.481 12.6089 21.4538C12.486 21.4265 12.3716 21.3698 12.2756 21.2883C12.1795 21.2069 12.1048 21.1032 12.058 20.9864L11.2449 18.6L10.4318 16.2136L6.0733 15.0205C5.95144 14.9938 5.84178 14.9277 5.76137 14.8324C5.68096 14.737 5.63432 14.6178 5.62868 14.4931C5.62304 14.3685 5.65873 14.2456 5.7302 14.1433C5.80166 14.0411 5.90491 13.9653 6.02387 13.9278L22.8614 7.86136L23.1716 7.75057C23.8244 7.52216 24.4994 8.05057 24.3563 8.68295Z" fill="#82BF00"/>
</g>
<defs>
<clipPath id="clip0_20_32">
<rect width="30" height="30" fill="white"/>
</clipPath>
</defs>
</svg>
