<svg width="33" height="33" viewBox="0 0 33 33" fill="none" xmlns="http://www.w3.org/2000/svg">
<path d="M22.2064 10.7945L22.1651 10.7533C20.8167 9.40446 19.0314 8.58102 17.1301 8.43106C15.2288 8.2811 13.3364 8.81446 11.7932 9.93521C10.2501 11.056 9.15746 12.6905 8.7119 14.545C8.26634 16.3994 8.49708 18.3519 9.36261 20.0514L9.71511 20.7451L9.05886 23.9326L9.04948 23.9739L12.2164 23.2239L12.9382 23.5895C14.4402 24.3357 16.1383 24.5923 17.7938 24.3232C19.4492 24.0541 20.9786 23.273 22.167 22.0895C23.6618 20.5946 24.5049 18.5693 24.5127 16.4552C24.5204 14.3411 23.6921 12.3098 22.2082 10.8039L22.2064 10.7945ZM21.8839 19.742C21.4957 20.3533 20.8826 21.0995 20.112 21.2851C18.762 21.6133 16.6901 21.2964 14.112 18.8945L14.0801 18.8645C11.8132 16.7645 11.2245 15.0151 11.367 13.6276C11.4457 12.8383 12.102 12.1276 12.6551 11.6608C12.7427 11.5865 12.8464 11.5337 12.958 11.5065C13.0696 11.4794 13.1859 11.4786 13.2979 11.5043C13.4098 11.5299 13.5142 11.5813 13.6028 11.6544C13.6914 11.7274 13.7617 11.8202 13.8082 11.9251L14.6426 13.8114C14.6972 13.9329 14.7176 14.067 14.7014 14.1992C14.6852 14.3314 14.6331 14.4567 14.5507 14.5614L14.1289 15.1089C14.0405 15.2212 13.9872 15.357 13.9755 15.4993C13.9638 15.6417 13.9944 15.7844 14.0632 15.9095C14.2995 16.322 14.8657 16.9314 15.4939 17.4976C16.1989 18.1333 16.9807 18.7164 17.4757 18.917C17.6085 18.9701 17.754 18.9826 17.8939 18.9529C18.0338 18.9232 18.1617 18.8526 18.2614 18.7501L18.7507 18.257C18.8452 18.1639 18.9626 18.0975 19.091 18.0646C19.2195 18.0316 19.3544 18.0333 19.482 18.0695L21.4639 18.632C21.5735 18.6655 21.6739 18.7236 21.7576 18.8019C21.8412 18.8803 21.9058 18.9767 21.9463 19.0839C21.9869 19.1911 22.0023 19.3061 21.9915 19.4202C21.9807 19.5343 21.9439 19.6444 21.8839 19.742Z" fill="white"/>
<path d="M16.5 0C13.2366 0 10.0465 0.967708 7.3331 2.78075C4.61969 4.59379 2.50484 7.17074 1.25599 10.1857C0.00714925 13.2007 -0.319606 16.5183 0.31705 19.719C0.953706 22.9197 2.52518 25.8597 4.83274 28.1673C7.14031 30.4748 10.0803 32.0463 13.281 32.683C16.4817 33.3196 19.7993 32.9929 22.8143 31.744C25.8293 30.4952 28.4062 28.3803 30.2193 25.6669C32.0323 22.9535 33 19.7634 33 16.5C33 12.1239 31.2616 7.92709 28.1673 4.83274C25.0729 1.73839 20.8761 0 16.5 0ZM26.7244 16.7437C26.6691 18.4567 26.1843 20.1284 25.3147 21.6052C24.445 23.0821 23.2183 24.3168 21.7472 25.1961C20.276 26.0754 18.6076 26.5711 16.895 26.6376C15.1824 26.7041 13.4805 26.3394 11.9456 25.5769L6.78001 26.8012C6.70171 26.8195 6.61974 26.8137 6.54481 26.7846C6.46987 26.7555 6.40546 26.7044 6.36001 26.6381C6.32933 26.5941 6.308 26.5443 6.29736 26.4917C6.28672 26.4392 6.28698 26.385 6.29813 26.3325L7.38376 21.0619C6.67564 19.6714 6.29499 18.1374 6.27092 16.5772C6.24686 15.017 6.58002 13.472 7.24491 12.0603C7.90981 10.6487 8.88881 9.40785 10.107 8.43277C11.3252 7.4577 12.7503 6.77421 14.2733 6.43462C15.7963 6.09503 17.3768 6.10834 18.8939 6.47352C20.4109 6.8387 21.8243 7.54608 23.0259 8.54153C24.2276 9.53698 25.1855 10.7941 25.8266 12.2167C26.4676 13.6394 26.7747 15.1898 26.7244 16.7494V16.7437Z" fill="white"/>
</svg>
