<svg width="30" height="30" viewBox="0 0 30 30" fill="none" xmlns="http://www.w3.org/2000/svg">
<path d="M20.187 9.81373L20.1495 9.77623C18.9237 8.55004 17.3006 7.80146 15.5722 7.66513C13.8437 7.52881 12.1234 8.01368 10.7205 9.03254C9.31763 10.0514 8.32434 11.5374 7.91929 13.2232C7.51423 14.9091 7.72399 16.6841 8.51084 18.2291L8.83129 18.8598L8.2347 21.7575L8.22618 21.795L11.1052 21.1132L11.7614 21.4456C13.1269 22.1239 14.6706 22.3571 16.1755 22.1125C17.6804 21.8679 19.0708 21.1578 20.1512 20.0819C21.5101 18.7229 22.2766 16.8817 22.2836 14.9598C22.2906 13.0379 21.5376 11.1912 20.1887 9.82226L20.187 9.81373ZM19.8938 17.9478C19.541 18.5035 18.9836 19.1819 18.283 19.3507C17.0557 19.649 15.1722 19.3609 12.8285 17.1774L12.7995 17.1501C10.7387 15.241 10.2035 13.6507 10.333 12.3893C10.4046 11.6717 11.0012 11.0257 11.504 10.6012C11.5837 10.5337 11.6779 10.4857 11.7794 10.461C11.8808 10.4363 11.9866 10.4356 12.0883 10.4589C12.1901 10.4823 12.285 10.529 12.3656 10.5954C12.4461 10.6618 12.51 10.7461 12.5523 10.8416L13.3108 12.5563C13.3605 12.6668 13.379 12.7887 13.3643 12.9089C13.3495 13.0291 13.3022 13.143 13.2273 13.2382L12.8438 13.7359C12.7635 13.838 12.715 13.9614 12.7044 14.0908C12.6938 14.2203 12.7215 14.35 12.7841 14.4637C12.9989 14.8387 13.5137 15.3927 14.0847 15.9075C14.7256 16.4853 15.4364 17.0154 15.8864 17.1978C16.0071 17.2461 16.1394 17.2575 16.2666 17.2305C16.3937 17.2035 16.51 17.1393 16.6006 17.0461L17.0455 16.5978C17.1313 16.5132 17.2381 16.4528 17.3549 16.4229C17.4717 16.3929 17.5943 16.3945 17.7103 16.4274L19.512 16.9387C19.6116 16.9692 19.703 17.022 19.779 17.0932C19.855 17.1644 19.9137 17.2521 19.9506 17.3496C19.9875 17.447 20.0015 17.5516 19.9917 17.6553C19.9818 17.759 19.9483 17.8591 19.8938 17.9478Z" fill="#82BF00"/>
<path d="M15 0C12.0333 0 9.13319 0.879735 6.66645 2.52796C4.19972 4.17618 2.27713 6.51886 1.14181 9.25975C0.00649932 12.0006 -0.290551 15.0166 0.288227 17.9264C0.867006 20.8361 2.29562 23.5088 4.3934 25.6066C6.49119 27.7044 9.16394 29.133 12.0737 29.7118C14.9834 30.2906 17.9994 29.9935 20.7403 28.8582C23.4811 27.7229 25.8238 25.8003 27.472 23.3336C29.1203 20.8668 30 17.9667 30 15C30 11.0218 28.4197 7.20644 25.6066 4.3934C22.7936 1.58035 18.9783 0 15 0ZM24.2949 15.2216C24.2446 16.7789 23.8039 18.2985 23.0133 19.6411C22.2227 20.9837 21.1076 22.1062 19.7702 22.9056C18.4328 23.7049 16.916 24.1555 15.3591 24.216C13.8022 24.2765 12.255 23.9449 10.8597 23.2517L6.16364 24.3648C6.09247 24.3814 6.01795 24.3761 5.94982 24.3496C5.8817 24.3231 5.82315 24.2768 5.78182 24.2165C5.75393 24.1765 5.73455 24.1312 5.72487 24.0834C5.7152 24.0356 5.71544 23.9863 5.72557 23.9386L6.71251 19.1472C6.06876 17.8831 5.72271 16.4885 5.70084 15.0702C5.67896 13.6518 5.98183 12.2472 6.58628 10.9639C7.19073 9.68062 8.08074 8.55259 9.1882 7.66616C10.2957 6.77972 11.5912 6.15837 12.9758 5.84966C14.3603 5.54094 15.7971 5.55303 17.1762 5.88502C18.5554 6.217 19.8403 6.86007 20.9327 7.76503C22.025 8.66998 22.8959 9.81283 23.4787 11.1061C24.0615 12.3994 24.3406 13.8089 24.2949 15.2267V15.2216Z" fill="#82BF00"/>
</svg>
